<svg width="796" height="438" x="0px" y="0px" viewBox="0 0 796 438" enable-background="new 0 0 796 438"
	version="1.1" xmlns="http://www.w3.org/2000/svg" xmlns:xlink="http://www.w3.org/1999/xlink" xml:space="preserve">
	<g id="Layers">
		<g id="__">
			<path name="仓山区" d="
				M414.66882,175.67501L414.66882,178.08152L417.06575,178.08152L417.06575,180.48802L417.06575,182.89453L419.46268,182.89453
				L419.46268,185.30104L421.85961,185.30104L421.85961,187.70754L424.25654,187.70754L424.25654,190.11405L426.65347,190.11405
				L426.65347,192.52056L429.0504,192.52056L431.44733,192.52056L433.84426,192.52056L433.84426,190.11405L436.24119,190.11405L
				438.63812,190.11405L441.03505,190.11405L441.03505,192.52056L443.43198,192.52056L445.82891,192.52056L445.82891,194.92707L
				448.22584,194.92707L448.22584,197.33357L450.62277,197.33357L450.62277,199.74008L453.0197,199.74008L453.0197,202.14659L455.41663,202.14659
				L457.81356,202.14659L457.81356,204.55309L460.21049,204.55309L462.60742,204.55309L462.60742,206.9596L465.00435,206.9596L465.00435,209.36611
				L467.40128,209.36611L467.40128,211.77261L469.79821,211.77261L467.40128,211.77261L465.00435,211.77261L465.00435,214.17912
				L462.60742,214.17912L462.60742,216.58563L460.21049,216.58563L460.21049,218.99214L457.81356,218.99214L455.41663,218.99214
				L455.41663,216.58563L453.0197,216.58563L450.62277,216.58563L450.62277,214.17912L448.22584,214.17912L445.82891,214.17912L
				443.43198,214.17912L443.43198,211.77261L441.03505,214.17912L441.03505,211.77261L438.63812,211.77261L436.24119,211.77261L
				433.84426,211.77261L431.44733,211.77261L429.0504,211.77261L426.65347,209.36611L424.25654,209.36611L421.85961,209.36611L421.85961,206.9596
				L417.06575,202.14659L417.06575,199.74008L414.66882,199.74008L414.66882,197.33357L414.66882,194.92707L412.27189,192.52056
				L412.27189,190.11405L412.27189,187.70754L412.27189,185.30104L412.27189,182.89453L412.27189,180.48802L409.87496,180.48802
				L409.87496,178.08152L409.87496,175.67501L412.27189,175.67501L414.66882,175.67501z"/>
			<path name="福清市" d="
				M426.65347,250.27673L426.65347,252.68323L426.65347,255.08974L426.65347,257.49625L429.0504,257.49625L431.44733,257.49625L
				431.44733,255.08974L433.84426,255.08974L433.84426,257.49625L436.24119,257.49625L436.24119,259.90275L436.24119,262.30926L
				438.63812,262.30926L441.03505,262.30926L441.03505,264.71577L443.43198,264.71577L445.82891,264.71577L445.82891,262.30926L
				448.22584,262.30926L445.82891,262.30926L448.22584,262.30926L448.22584,264.71577L448.22584,267.12228L450.62277,267.12228L
				453.0197,267.12228L455.41663,267.12228L455.41663,264.71577L455.41663,262.30926L457.81356,262.30926L455.41663,262.30926L457.81356,262.30926
				L455.41663,262.30926L457.81356,262.30926L455.41663,262.30926L457.81356,262.30926L457.81356,259.90275L457.81356,257.49625
				L460.21049,257.49625L460.21049,255.08974L462.60742,255.08974L465.00435,255.08974L462.60742,255.08974L462.60742,257.49625
				L465.00435,257.49625L462.60742,257.49625L465.00435,257.49625L465.00435,259.90275L465.00435,257.49625L467.40128,257.49625
				L467.40128,259.90275L469.79821,259.90275L472.19513,259.90275L472.19513,262.30926L472.19513,264.71577L469.79821,264.71577
				L472.19513,264.71577L469.79821,264.71577L472.19513,264.71577L472.19513,267.12228L474.59206,267.12228L474.59206,269.52878
				L476.98899,269.52878L476.98899,267.12228L476.98899,269.52878L479.38592,269.52878L479.38592,267.12228L481.78285,267.12228
				L484.17978,267.12228L484.17978,269.52878L484.17978,267.12228L486.57671,267.12228L488.97364,267.12228L491.37057,267.12228
				L493.7675,267.12228L493.7675,269.52878L496.16443,269.52878L496.16443,271.93529L493.7675,271.93529L493.7675,274.3418L491.37057,274.3418
				L491.37057,271.93529L491.37057,274.3418L491.37057,276.7483L493.7675,276.7483L496.16443,276.7483L496.16443,279.15481L498.56136,279.15481
				L500.95829,279.15481L503.35522,279.15481L503.35522,281.56132L505.75215,281.56132L505.75215,283.96782L503.35522,283.96782
				L503.35522,286.37433L503.35522,288.78084L500.95829,288.78084L500.95829,291.18734L503.35522,291.18734L503.35522,293.59385
				L505.75215,293.59385L505.75215,296.00036L503.35522,296.00036L503.35522,298.40687L500.95829,298.40687L498.56136,298.40687
				L498.56136,296.00036L498.56136,298.40687L498.56136,296.00036L498.56136,298.40687L498.56136,296.00036L498.56136,293.59385
				L496.16443,293.59385L493.7675,293.59385L493.7675,291.18734L493.7675,293.59385L491.37057,293.59385L491.37057,296.00036L488.97364,296.00036
				L488.97364,298.40687L486.57671,298.40687L486.57671,300.81337L486.57671,298.40687L486.57671,300.81337L486.57671,298.40687
				L486.57671,300.81337L484.17978,300.81337L486.57671,298.40687L484.17978,298.40687L484.17978,300.81337L484.17978,303.21988
				L484.17978,300.81337L481.78285,300.81337L481.78285,303.21988L479.38592,303.21988L479.38592,300.81337L479.38592,303.21988
				L479.38592,300.81337L479.38592,303.21988L476.98899,303.21988L476.98899,305.62639L476.98899,303.21988L476.98899,305.62639
				L476.98899,303.21988L476.98899,300.81337L474.59206,300.81337L474.59206,298.40687L472.19513,298.40687L472.19513,296.00036
				L472.19513,298.40687L474.59206,298.40687L474.59206,300.81337L474.59206,303.21988L476.98899,303.21988L476.98899,305.62639
				L474.59206,305.62639L472.19513,305.62639L472.19513,308.03289L474.59206,308.03289L474.59206,310.4394L472.19513,310.4394L474.59206,310.4394
				L476.98899,310.4394L476.98899,312.84591L474.59206,312.84591L474.59206,315.25241L476.98899,315.25241L479.38592,315.25241L
				481.78285,315.25241L479.38592,315.25241L481.78285,317.65892L484.17978,317.65892L484.17978,320.06543L481.78285,320.06543L
				481.78285,322.47194L479.38592,322.47194L479.38592,324.87844L479.38592,322.47194L479.38592,324.87844L479.38592,327.28495L
				476.98899,327.28495L476.98899,329.69146L479.38592,329.69146L479.38592,332.09796L481.78285,332.09796L481.78285,334.50447L
				484.17978,334.50447L484.17978,336.91098L486.57671,336.91098L488.97364,336.91098L491.37057,336.91098L491.37057,334.50447L
				488.97364,334.50447L491.37057,334.50447L491.37057,332.09796L491.37057,329.69146L491.37057,327.28495L493.7675,327.28495L493.7675,329.69146
				L496.16443,329.69146L498.56136,329.69146L500.95829,329.69146L503.35522,329.69146L505.75215,329.69146L505.75215,327.28495
				L508.14908,327.28495L510.54601,327.28495L510.54601,324.87844L510.54601,327.28495L510.54601,324.87844L510.54601,327.28495
				L510.54601,324.87844L510.54601,327.28495L510.54601,324.87844L512.94294,324.87844L512.94294,327.28495L510.54601,327.28495
				L512.94294,327.28495L508.14908,327.28495L505.75215,327.28495L505.75215,329.69146L508.14908,329.69146L508.14908,332.09796
				L508.14908,334.50447L508.14908,332.09796L508.14908,334.50447L510.54601,334.50447L510.54601,332.09796L510.54601,334.50447
				L510.54601,332.09796L512.94294,332.09796L512.94294,329.69146L512.94294,332.09796L510.54601,332.09796L510.54601,334.50447
				L512.94294,334.50447L510.54601,334.50447L512.94294,334.50447L510.54601,334.50447L512.94294,336.91098L512.94294,334.50447
				L512.94294,336.91098L512.94294,339.31748L510.54601,339.31748L512.94294,339.31748L512.94294,341.72399L512.94294,344.1305L
				512.94294,341.72399L512.94294,344.1305L510.54601,344.1305L510.54601,346.53701L508.14908,346.53701L510.54601,346.53701L508.14908,346.53701
				L510.54601,346.53701L510.54601,348.94351L508.14908,348.94351L510.54601,348.94351L510.54601,351.35002L512.94294,351.35002
				L510.54601,351.35002L512.94294,351.35002L510.54601,351.35002L512.94294,351.35002L510.54601,351.35002L510.54601,353.75653
				L510.54601,356.16303L512.94294,356.16303L515.33987,356.16303L512.94294,356.16303L512.94294,358.56954L512.94294,356.16303
				L512.94294,358.56954L510.54601,358.56954L510.54601,360.97605L512.94294,360.97605L512.94294,363.38255L510.54601,363.38255
				L512.94294,363.38255L512.94294,365.78906L512.94294,363.38255L515.33987,363.38255L517.7368,363.38255L517.7368,365.78906L517.7368,363.38255
				L520.13373,363.38255L520.13373,360.97605L520.13373,363.38255L522.53066,363.38255L520.13373,363.38255L520.13373,365.78906
				L520.13373,368.19557L520.13373,370.60208L522.53066,370.60208L522.53066,368.19557L522.53066,370.60208L524.92759,370.60208
				L524.92759,373.00858L522.53066,373.00858L522.53066,370.60208L520.13373,370.60208L520.13373,373.00858L522.53066,373.00858
				L522.53066,375.41509L524.92759,375.41509L527.32452,375.41509L527.32452,377.8216L527.32452,380.2281L527.32452,382.63461L524.92759,382.63461
				L524.92759,385.04112L524.92759,387.44762L524.92759,389.85413L524.92759,392.26064L522.53066,392.26064L524.92759,392.26064
				L522.53066,392.26064L524.92759,392.26064L524.92759,389.85413L522.53066,389.85413L522.53066,392.26064L520.13373,392.26064
				L517.7368,392.26064L517.7368,394.66714L515.33987,394.66714L515.33987,397.07365L517.7368,397.07365L517.7368,394.66714L520.13373,394.66714
				L522.53066,394.66714L524.92759,394.66714L524.92759,392.26064L524.92759,394.66714L524.92759,397.07365L522.53066,397.07365
				L522.53066,399.48016L520.13373,399.48016L517.7368,399.48016L515.33987,399.48016L512.94294,399.48016L515.33987,399.48016L
				515.33987,401.88667L512.94294,401.88667L510.54601,401.88667L510.54601,404.29317L510.54601,406.69968L510.54601,404.29317L
				508.14908,404.29317L508.14908,401.88667L508.14908,399.48016L505.75215,399.48016L505.75215,397.07365L505.75215,394.66714L
				505.75215,392.26064L505.75215,389.85413L503.35522,389.85413L503.35522,387.44762L505.75215,387.44762L505.75215,385.04112L
				503.35522,385.04112L503.35522,382.63461L505.75215,382.63461L505.75215,380.2281L503.35522,380.2281L503.35522,377.8216L503.35522,375.41509
				L503.35522,377.8216L503.35522,375.41509L500.95829,375.41509L503.35522,373.00858L503.35522,370.60208L505.75215,370.60208L
				505.75215,368.19557L505.75215,365.78906L503.35522,365.78906L500.95829,365.78906L498.56136,365.78906L498.56136,368.19557L
				498.56136,370.60208L496.16443,370.60208L498.56136,370.60208L496.16443,370.60208L498.56136,370.60208L498.56136,373.00858L
				496.16443,373.00858L496.16443,370.60208L496.16443,373.00858L498.56136,373.00858L500.95829,373.00858L500.95829,375.41509L
				500.95829,377.8216L500.95829,375.41509L498.56136,375.41509L496.16443,375.41509L498.56136,375.41509L500.95829,377.8216L498.56136,377.8216
				L498.56136,380.2281L498.56136,377.8216L500.95829,377.8216L503.35522,377.8216L500.95829,377.8216L503.35522,377.8216L503.35522,380.2281
				L503.35522,382.63461L503.35522,385.04112L500.95829,385.04112L498.56136,385.04112L498.56136,387.44762L498.56136,389.85413
				L498.56136,387.44762L496.16443,389.85413L496.16443,392.26064L493.7675,392.26064L493.7675,394.66714L491.37057,394.66714L488.97364,394.66714
				L491.37057,394.66714L488.97364,394.66714L488.97364,392.26064L488.97364,394.66714L488.97364,392.26064L486.57671,392.26064
				L484.17978,392.26064L481.78285,392.26064L484.17978,392.26064L486.57671,394.66714L484.17978,394.66714L481.78285,394.66714
				L481.78285,392.26064L484.17978,392.26064L481.78285,392.26064L481.78285,394.66714L479.38592,394.66714L479.38592,392.26064
				L479.38592,394.66714L476.98899,394.66714L479.38592,394.66714L479.38592,392.26064L479.38592,389.85413L481.78285,389.85413
				L481.78285,387.44762L484.17978,387.44762L481.78285,387.44762L481.78285,385.04112L481.78285,382.63461L479.38592,382.63461
				L479.38592,380.2281L476.98899,380.2281L476.98899,377.8216L474.59206,377.8216L472.19513,377.8216L472.19513,380.2281L472.19513,377.8216
				L474.59206,377.8216L474.59206,375.41509L476.98899,375.41509L476.98899,373.00858L479.38592,373.00858L479.38592,370.60208L
				479.38592,368.19557L481.78285,368.19557L481.78285,365.78906L479.38592,365.78906L479.38592,368.19557L476.98899,368.19557L
				476.98899,365.78906L476.98899,363.38255L476.98899,365.78906L474.59206,365.78906L472.19513,365.78906L472.19513,368.19557L
				472.19513,370.60208L472.19513,368.19557L472.19513,370.60208L469.79821,370.60208L467.40128,370.60208L467.40128,373.00858L
				465.00435,373.00858L465.00435,370.60208L467.40128,370.60208L467.40128,368.19557L469.79821,368.19557L469.79821,365.78906L
				469.79821,363.38255L467.40128,363.38255L467.40128,360.97605L467.40128,358.56954L469.79821,358.56954L472.19513,358.56954L
				472.19513,356.16303L472.19513,353.75653L472.19513,351.35002L469.79821,351.35002L469.79821,353.75653L467.40128,353.75653L
				467.40128,351.35002L467.40128,353.75653L465.00435,353.75653L465.00435,351.35002L467.40128,351.35002L465.00435,351.35002L
				465.00435,353.75653L462.60742,353.75653L462.60742,356.16303L460.21049,356.16303L460.21049,353.75653L457.81356,353.75653L
				455.41663,353.75653L457.81356,351.35002L457.81356,348.94351L455.41663,348.94351L453.0197,348.94351L453.0197,346.53701L450.62277,346.53701
				L448.22584,346.53701L448.22584,344.1305L445.82891,344.1305L445.82891,341.72399L445.82891,339.31748L445.82891,336.91098L448.22584,336.91098
				L445.82891,336.91098L443.43198,336.91098L443.43198,339.31748L445.82891,339.31748L443.43198,339.31748L443.43198,341.72399
				L443.43198,344.1305L443.43198,346.53701L443.43198,344.1305L443.43198,346.53701L443.43198,348.94351L441.03505,348.94351L441.03505,351.35002
				L441.03505,353.75653L438.63812,353.75653L438.63812,356.16303L438.63812,358.56954L438.63812,360.97605L438.63812,363.38255
				L438.63812,365.78906L438.63812,368.19557L441.03505,370.60208L443.43198,373.00858L441.03505,373.00858L438.63812,373.00858
				L438.63812,370.60208L436.24119,370.60208L433.84426,370.60208L433.84426,373.00858L431.44733,373.00858L431.44733,375.41509
				L431.44733,377.8216L429.0504,377.8216L426.65347,377.8216L429.0504,377.8216L426.65347,377.8216L426.65347,375.41509L424.25654,375.41509
				L426.65347,375.41509L426.65347,373.00858L426.65347,375.41509L426.65347,373.00858L426.65347,370.60208L426.65347,368.19557
				L424.25654,368.19557L424.25654,365.78906L421.85961,363.38255L421.85961,360.97605L424.25654,358.56954L424.25654,356.16303
				L426.65347,356.16303L426.65347,353.75653L424.25654,353.75653L424.25654,356.16303L421.85961,356.16303L421.85961,358.56954
				L419.46268,358.56954L419.46268,356.16303L419.46268,353.75653L417.06575,353.75653L417.06575,356.16303L414.66882,356.16303
				L412.27189,358.56954L409.87496,358.56954L409.87496,360.97605L412.27189,360.97605L409.87496,360.97605L412.27189,360.97605
				L409.87496,360.97605L409.87496,363.38255L409.87496,360.97605L407.47804,360.97605L405.08111,360.97605L405.08111,358.56954
				L405.08111,356.16303L405.08111,353.75653L405.08111,356.16303L405.08111,353.75653L405.08111,356.16303L405.08111,353.75653
				L407.47804,353.75653L407.47804,356.16303L409.87496,356.16303L409.87496,353.75653L409.87496,351.35002L412.27189,351.35002
				L409.87496,351.35002L412.27189,351.35002L409.87496,351.35002L409.87496,348.94351L412.27189,348.94351L412.27189,351.35002
				L412.27189,348.94351L414.66882,348.94351L414.66882,346.53701L414.66882,344.1305L414.66882,341.72399L412.27189,341.72399L
				414.66882,341.72399L412.27189,341.72399L412.27189,339.31748L412.27189,336.91098L409.87496,336.91098L409.87496,334.50447L
				407.47804,334.50447L407.47804,336.91098L405.08111,336.91098L405.08111,339.31748L402.68418,339.31748L402.68418,336.91098L
				400.28725,336.91098L397.89032,336.91098L397.89032,334.50447L395.49339,334.50447L395.49339,332.09796L393.09646,332.09796L
				395.49339,332.09796L395.49339,329.69146L393.09646,329.69146L393.09646,327.28495L390.69953,327.28495L393.09646,327.28495L
				395.49339,327.28495L395.49339,329.69146L395.49339,327.28495L395.49339,329.69146L395.49339,327.28495L395.49339,324.87844L
				393.09646,324.87844L393.09646,327.28495L393.09646,324.87844L393.09646,327.28495L393.09646,324.87844L393.09646,322.47194L
				390.69953,322.47194L390.69953,320.06543L390.69953,317.65892L388.3026,317.65892L388.3026,315.25241L385.90567,315.25241L385.90567,312.84591
				L385.90567,310.4394L385.90567,308.03289L385.90567,305.62639L388.3026,305.62639L388.3026,303.21988L388.3026,300.81337L390.69953,300.81337
				L390.69953,298.40687L390.69953,300.81337L390.69953,298.40687L388.3026,298.40687L388.3026,296.00036L388.3026,293.59385L388.3026,296.00036
				L388.3026,293.59385L390.69953,293.59385L390.69953,291.18734L388.3026,291.18734L385.90567,291.18734L385.90567,288.78084L383.50874,288.78084
				L385.90567,288.78084L385.90567,291.18734L383.50874,291.18734L383.50874,288.78084L385.90567,288.78084L385.90567,286.37433
				L388.3026,286.37433L388.3026,283.96782L390.69953,283.96782L390.69953,281.56132L390.69953,279.15481L388.3026,279.15481L388.3026,281.56132
				L388.3026,279.15481L385.90567,279.15481L383.50874,279.15481L381.11181,279.15481L378.71488,279.15481L378.71488,276.7483L378.71488,279.15481
				L376.31795,279.15481L373.92102,279.15481L373.92102,276.7483L373.92102,279.15481L371.52409,279.15481L369.12716,279.15481L
				369.12716,276.7483L369.12716,274.3418L369.12716,271.93529L371.52409,271.93529L371.52409,274.3418L371.52409,271.93529L373.92102,271.93529
				L371.52409,271.93529L373.92102,271.93529L373.92102,269.52878L373.92102,271.93529L373.92102,269.52878L376.31795,269.52878
				L376.31795,267.12228L378.71488,267.12228L381.11181,267.12228L381.11181,264.71577L383.50874,264.71577L383.50874,267.12228
				L385.90567,267.12228L385.90567,269.52878L388.3026,269.52878L388.3026,267.12228L390.69953,267.12228L390.69953,269.52878L393.09646,269.52878
				L393.09646,267.12228L395.49339,267.12228L395.49339,264.71577L395.49339,262.30926L395.49339,259.90275L397.89032,259.90275
				L400.28725,259.90275L402.68418,259.90275L402.68418,257.49625L405.08111,257.49625L405.08111,255.08974L407.47804,255.08974
				L407.47804,252.68323L407.47804,255.08974L409.87496,255.08974L412.27189,255.08974L412.27189,257.49625L414.66882,257.49625
				L412.27189,257.49625L414.66882,257.49625L414.66882,255.08974L414.66882,252.68323L417.06575,252.68323L419.46268,252.68323
				L419.46268,255.08974L419.46268,252.68323L419.46268,255.08974L419.46268,252.68323L419.46268,255.08974L419.46268,252.68323
				L421.85961,252.68323L424.25654,252.68323L424.25654,250.27673L426.65347,250.27673zM505.75215,303.21988L505.75215,305.62639
				L503.35522,305.62639L503.35522,303.21988L505.75215,303.21988L505.75215,300.81337L505.75215,303.21988zM493.7675,315.25241
				L491.37057,315.25241L493.7675,315.25241L493.7675,317.65892L491.37057,317.65892L493.7675,317.65892L493.7675,320.06543L493.7675,322.47194
				L493.7675,324.87844L493.7675,322.47194L493.7675,324.87844L491.37057,324.87844L491.37057,327.28495L491.37057,324.87844L491.37057,322.47194
				L491.37057,320.06543L491.37057,317.65892L491.37057,315.25241L493.7675,315.25241zM515.33987,344.1305L517.7368,344.1305L515.33987,344.1305
				zM517.7368,348.94351L515.33987,348.94351L517.7368,348.94351zM515.33987,348.94351L515.33987,351.35002L515.33987,348.94351
				zM512.94294,353.75653L510.54601,353.75653L510.54601,351.35002L512.94294,351.35002L512.94294,353.75653zM515.33987,356.16303
				L515.33987,353.75653L515.33987,356.16303zM522.53066,363.38255L522.53066,360.97605L522.53066,363.38255zM460.21049,368.19557
				L460.21049,365.78906L457.81356,365.78906L460.21049,365.78906L460.21049,368.19557zM500.95829,368.19557L500.95829,370.60208
				L500.95829,368.19557zM455.41663,370.60208L457.81356,370.60208L457.81356,373.00858L455.41663,373.00858L457.81356,373.00858
				L457.81356,370.60208L457.81356,373.00858L455.41663,373.00858L455.41663,375.41509L453.0197,375.41509L453.0197,373.00858L453.0197,370.60208
				L453.0197,368.19557L455.41663,368.19557L455.41663,370.60208zM445.82891,377.8216L448.22584,377.8216L445.82891,377.8216L445.82891,380.2281
				L445.82891,377.8216zM529.72145,377.8216L529.72145,380.2281L529.72145,377.8216zM527.32452,385.04112L527.32452,382.63461L527.32452,385.04112
				zM479.38592,397.07365L479.38592,399.48016L479.38592,401.88667L476.98899,401.88667L474.59206,401.88667L472.19513,401.88667
				L472.19513,399.48016L474.59206,399.48016L474.59206,397.07365L476.98899,397.07365L479.38592,397.07365z"/>
			<path name="鼓楼区" d="
				M426.65347,170.862L429.0504,170.862L429.0504,173.2685L426.65347,173.2685L429.0504,173.2685L429.0504,170.862L431.44733,170.862
				L431.44733,173.2685L433.84426,173.2685L433.84426,175.67501L433.84426,178.08152L433.84426,180.48802L436.24119,182.89453L436.24119,185.30104
				L433.84426,185.30104L431.44733,185.30104L429.0504,185.30104L426.65347,185.30104L426.65347,187.70754L424.25654,187.70754L
				421.85961,187.70754L421.85961,185.30104L419.46268,185.30104L419.46268,182.89453L417.06575,182.89453L417.06575,180.48802L
				417.06575,178.08152L414.66882,178.08152L417.06575,178.08152L417.06575,175.67501L419.46268,175.67501L419.46268,173.2685L421.85961,173.2685
				L421.85961,170.862L424.25654,170.862L426.65347,170.862z"/>
				<path name="晋安区" d="
				M426.65347,86.63425L426.65347,89.04076L429.0504,89.04076L429.0504,91.44727L426.65347,91.44727L429.0504,91.44727L426.65347,91.44727
				L429.0504,91.44727L429.0504,93.85377L426.65347,93.85377L429.0504,93.85377L429.0504,96.26028L426.65347,96.26028L426.65347,98.66679
				L426.65347,101.07329L426.65347,98.66679L426.65347,101.07329L429.0504,101.07329L431.44733,101.07329L431.44733,103.4798L431.44733,105.88631
				L433.84426,105.88631L433.84426,103.4798L436.24119,103.4798L433.84426,103.4798L436.24119,103.4798L433.84426,103.4798L433.84426,101.07329
				L433.84426,103.4798L433.84426,101.07329L436.24119,101.07329L436.24119,98.66679L436.24119,101.07329L438.63812,101.07329L438.63812,103.4798
				L438.63812,101.07329L438.63812,103.4798L441.03505,103.4798L438.63812,103.4798L441.03505,103.4798L438.63812,103.4798L438.63812,105.88631
				L438.63812,108.29281L441.03505,108.29281L441.03505,110.69932L438.63812,110.69932L441.03505,110.69932L443.43198,110.69932
				L443.43198,113.10583L445.82891,113.10583L443.43198,113.10583L443.43198,115.51234L441.03505,115.51234L441.03505,117.91884
				L441.03505,120.32535L441.03505,122.73186L441.03505,125.13836L443.43198,125.13836L443.43198,127.54487L443.43198,129.95138
				L445.82891,129.95138L445.82891,132.35788L443.43198,132.35788L445.82891,132.35788L445.82891,134.76439L448.22584,134.76439
				L450.62277,134.76439L453.0197,134.76439L453.0197,137.1709L453.0197,139.57741L453.0197,141.98391L453.0197,144.39042L455.41663,144.39042
				L455.41663,146.79693L453.0197,146.79693L455.41663,146.79693L455.41663,149.20343L457.81356,149.20343L457.81356,151.60994L
				460.21049,151.60994L462.60742,151.60994L465.00435,151.60994L467.40128,151.60994L467.40128,154.01645L469.79821,154.01645L
				469.79821,156.42295L469.79821,158.82946L467.40128,158.82946L469.79821,158.82946L469.79821,161.23597L467.40128,161.23597L
				465.00435,161.23597L467.40128,161.23597L467.40128,163.64247L467.40128,166.04898L465.00435,166.04898L465.00435,168.45549L
				467.40128,168.45549L467.40128,170.862L465.00435,170.862L465.00435,168.45549L462.60742,168.45549L462.60742,170.862L465.00435,170.862
				L462.60742,170.862L462.60742,173.2685L465.00435,173.2685L465.00435,175.67501L465.00435,178.08152L462.60742,178.08152L462.60742,180.48802
				L460.21049,180.48802L460.21049,178.08152L460.21049,180.48802L460.21049,182.89453L460.21049,185.30104L457.81356,185.30104
				L457.81356,187.70754L457.81356,190.11405L457.81356,192.52056L457.81356,194.92707L457.81356,192.52056L455.41663,192.52056
				L455.41663,194.92707L455.41663,192.52056L453.0197,194.92707L450.62277,194.92707L448.22584,194.92707L448.22584,192.52056L
				448.22584,190.11405L445.82891,190.11405L445.82891,192.52056L445.82891,190.11405L443.43198,190.11405L443.43198,187.70754L
				441.03505,187.70754L438.63812,187.70754L436.24119,187.70754L436.24119,185.30104L436.24119,182.89453L433.84426,180.48802L
				433.84426,178.08152L433.84426,175.67501L433.84426,173.2685L431.44733,173.2685L431.44733,170.862L429.0504,170.862L429.0504,173.2685
				L426.65347,173.2685L429.0504,173.2685L429.0504,170.862L426.65347,170.862L424.25654,170.862L421.85961,170.862L421.85961,173.2685
				L419.46268,173.2685L419.46268,170.862L419.46268,168.45549L417.06575,168.45549L414.66882,168.45549L417.06575,168.45549L414.66882,168.45549
				L414.66882,166.04898L414.66882,168.45549L414.66882,166.04898L414.66882,163.64247L414.66882,161.23597L417.06575,161.23597
				L417.06575,158.82946L417.06575,161.23597L417.06575,158.82946L417.06575,156.42295L414.66882,156.42295L414.66882,154.01645
				L414.66882,151.60994L412.27189,151.60994L412.27189,154.01645L409.87496,154.01645L409.87496,151.60994L407.47804,151.60994
				L409.87496,151.60994L409.87496,149.20343L407.47804,149.20343L409.87496,149.20343L409.87496,146.79693L407.47804,146.79693
				L407.47804,144.39042L405.08111,144.39042L407.47804,144.39042L407.47804,141.98391L407.47804,144.39042L407.47804,141.98391
				L409.87496,141.98391L409.87496,139.57741L409.87496,137.1709L409.87496,134.76439L407.47804,134.76439L405.08111,134.76439L
				407.47804,134.76439L407.47804,132.35788L405.08111,132.35788L405.08111,134.76439L405.08111,132.35788L402.68418,132.35788L
				402.68418,129.95138L400.28725,129.95138L400.28725,127.54487L402.68418,127.54487L405.08111,127.54487L405.08111,125.13836L
				402.68418,125.13836L402.68418,122.73186L400.28725,122.73186L400.28725,120.32535L397.89032,120.32535L397.89032,117.91884L
				397.89032,120.32535L397.89032,117.91884L400.28725,117.91884L400.28725,115.51234L400.28725,113.10583L400.28725,110.69932L
				400.28725,113.10583L400.28725,110.69932L402.68418,110.69932L405.08111,110.69932L405.08111,108.29281L402.68418,108.29281L
				402.68418,110.69932L402.68418,108.29281L405.08111,108.29281L402.68418,108.29281L402.68418,105.88631L402.68418,103.4798L402.68418,101.07329
				L405.08111,101.07329L407.47804,101.07329L407.47804,98.66679L409.87496,98.66679L409.87496,96.26028L412.27189,96.26028L412.27189,98.66679
				L412.27189,96.26028L414.66882,96.26028L417.06575,96.26028L417.06575,98.66679L419.46268,98.66679L419.46268,96.26028L417.06575,96.26028
				L417.06575,93.85377L414.66882,93.85377L414.66882,96.26028L414.66882,93.85377L412.27189,93.85377L412.27189,96.26028L412.27189,93.85377
				L412.27189,91.44727L414.66882,91.44727L414.66882,89.04076L414.66882,91.44727L417.06575,91.44727L417.06575,89.04076L417.06575,91.44727
				L419.46268,91.44727L419.46268,89.04076L421.85961,89.04076L421.85961,86.63425L421.85961,89.04076L424.25654,89.04076L426.65347,89.04076
				L426.65347,86.63425z"/>
			<path name="连江县" d="
				M522.53066,77.00822L524.92759,77.00822L524.92759,79.41473L524.92759,81.82124L527.32452,84.22774L527.32452,86.63425L527.32452,89.04076
				L524.92759,89.04076L524.92759,91.44727L524.92759,93.85377L524.92759,96.26028L527.32452,96.26028L529.72145,96.26028L527.32452,96.26028
				L527.32452,98.66679L524.92759,98.66679L524.92759,101.07329L522.53066,101.07329L524.92759,101.07329L524.92759,103.4798L524.92759,101.07329
				L524.92759,103.4798L527.32452,103.4798L529.72145,103.4798L529.72145,105.88631L532.11838,105.88631L534.5153,105.88631L536.91223,105.88631
				L536.91223,103.4798L539.30916,103.4798L541.70609,103.4798L541.70609,101.07329L541.70609,103.4798L544.10302,103.4798L544.10302,101.07329
				L546.49995,101.07329L546.49995,103.4798L544.10302,103.4798L546.49995,103.4798L544.10302,103.4798L546.49995,103.4798L548.89688,103.4798
				L548.89688,101.07329L551.29381,101.07329L551.29381,98.66679L553.69074,98.66679L553.69074,96.26028L553.69074,98.66679L553.69074,101.07329
				L556.08767,101.07329L556.08767,98.66679L556.08767,96.26028L556.08767,93.85377L558.4846,93.85377L556.08767,93.85377L556.08767,96.26028
				L558.4846,96.26028L560.88153,96.26028L560.88153,93.85377L560.88153,91.44727L558.4846,91.44727L560.88153,91.44727L560.88153,89.04076
				L560.88153,91.44727L563.27846,91.44727L563.27846,89.04076L565.67539,89.04076L565.67539,86.63425L565.67539,84.22774L568.07232,84.22774
				L565.67539,84.22774L565.67539,86.63425L568.07232,86.63425L568.07232,84.22774L568.07232,86.63425L568.07232,84.22774L565.67539,84.22774
				L568.07232,84.22774L568.07232,81.82124L568.07232,84.22774L570.46925,84.22774L570.46925,81.82124L572.86618,81.82124L572.86618,84.22774
				L570.46925,84.22774L572.86618,84.22774L572.86618,86.63425L570.46925,86.63425L572.86618,86.63425L575.26311,86.63425L575.26311,89.04076
				L575.26311,86.63425L575.26311,89.04076L577.66004,89.04076L577.66004,91.44727L577.66004,89.04076L577.66004,91.44727L575.26311,91.44727
				L575.26311,93.85377L572.86618,93.85377L575.26311,93.85377L575.26311,96.26028L575.26311,93.85377L575.26311,96.26028L575.26311,93.85377
				L577.66004,93.85377L580.05697,93.85377L577.66004,93.85377L577.66004,96.26028L580.05697,96.26028L580.05697,93.85377L580.05697,96.26028
				L580.05697,98.66679L582.4539,98.66679L582.4539,96.26028L582.4539,98.66679L582.4539,96.26028L582.4539,98.66679L580.05697,98.66679
				L580.05697,101.07329L577.66004,101.07329L577.66004,103.4798L580.05697,103.4798L582.4539,103.4798L582.4539,105.88631L582.4539,103.4798
				L582.4539,105.88631L582.4539,103.4798L582.4539,105.88631L584.85083,105.88631L584.85083,103.4798L584.85083,101.07329L587.24776,101.07329
				L587.24776,103.4798L589.64469,103.4798L589.64469,105.88631L589.64469,103.4798L589.64469,105.88631L587.24776,105.88631L589.64469,105.88631
				L592.04162,105.88631L589.64469,105.88631L592.04162,105.88631L589.64469,105.88631L592.04162,103.4798L592.04162,101.07329L
				594.43855,101.07329L594.43855,103.4798L594.43855,101.07329L594.43855,103.4798L594.43855,101.07329L596.83547,101.07329L596.83547,103.4798
				L596.83547,101.07329L599.2324,101.07329L596.83547,101.07329L599.2324,101.07329L599.2324,98.66679L601.62933,98.66679L604.02626,98.66679
				L604.02626,96.26028L604.02626,98.66679L604.02626,96.26028L604.02626,98.66679L601.62933,98.66679L601.62933,101.07329L601.62933,103.4798
				L599.2324,103.4798L601.62933,103.4798L599.2324,103.4798L596.83547,103.4798L599.2324,103.4798L599.2324,105.88631L596.83547,105.88631
				L594.43855,105.88631L596.83547,105.88631L596.83547,108.29281L596.83547,105.88631L596.83547,108.29281L594.43855,108.29281
				L592.04162,108.29281L592.04162,110.69932L589.64469,110.69932L589.64469,113.10583L589.64469,115.51234L587.24776,115.51234
				L587.24776,113.10583L587.24776,115.51234L584.85083,115.51234L584.85083,113.10583L582.4539,113.10583L582.4539,115.51234L580.05697,115.51234
				L582.4539,115.51234L580.05697,115.51234L577.66004,117.91884L580.05697,115.51234L580.05697,113.10583L580.05697,110.69932L
				580.05697,113.10583L580.05697,110.69932L577.66004,113.10583L577.66004,110.69932L577.66004,113.10583L577.66004,110.69932L
				577.66004,113.10583L575.26311,113.10583L577.66004,113.10583L577.66004,110.69932L575.26311,110.69932L575.26311,108.29281L
				575.26311,110.69932L572.86618,110.69932L572.86618,108.29281L575.26311,108.29281L572.86618,108.29281L575.26311,108.29281L
				572.86618,108.29281L572.86618,110.69932L575.26311,110.69932L572.86618,110.69932L570.46925,110.69932L570.46925,113.10583L
				568.07232,113.10583L565.67539,113.10583L563.27846,113.10583L563.27846,115.51234L560.88153,115.51234L560.88153,117.91884L
				560.88153,120.32535L563.27846,120.32535L565.67539,120.32535L565.67539,122.73186L565.67539,125.13836L563.27846,125.13836L
				563.27846,127.54487L563.27846,125.13836L560.88153,125.13836L560.88153,127.54487L560.88153,125.13836L560.88153,122.73186L
				558.4846,122.73186L558.4846,120.32535L556.08767,120.32535L553.69074,120.32535L553.69074,122.73186L553.69074,120.32535L556.08767,120.32535
				L553.69074,120.32535L551.29381,120.32535L548.89688,120.32535L551.29381,120.32535L551.29381,122.73186L551.29381,120.32535
				L551.29381,122.73186L551.29381,120.32535L551.29381,122.73186L548.89688,122.73186L548.89688,125.13836L548.89688,122.73186
				L546.49995,122.73186L546.49995,125.13836L544.10302,125.13836L541.70609,125.13836L541.70609,127.54487L541.70609,125.13836
				L539.30916,125.13836L536.91223,125.13836L534.5153,125.13836L534.5153,127.54487L532.11838,127.54487L529.72145,127.54487L527.32452,127.54487
				L524.92759,127.54487L522.53066,127.54487L520.13373,127.54487L520.13373,129.95138L522.53066,132.35788L524.92759,132.35788
				L524.92759,134.76439L527.32452,134.76439L527.32452,137.1709L527.32452,139.57741L529.72145,139.57741L527.32452,139.57741L
				524.92759,139.57741L524.92759,141.98391L524.92759,144.39042L524.92759,146.79693L522.53066,146.79693L520.13373,149.20343L
				517.7368,149.20343L517.7368,151.60994L517.7368,154.01645L515.33987,154.01645L512.94294,154.01645L510.54601,154.01645L510.54601,156.42295
				L510.54601,154.01645L510.54601,156.42295L510.54601,158.82946L510.54601,161.23597L510.54601,163.64247L512.94294,163.64247
				L512.94294,166.04898L510.54601,166.04898L510.54601,168.45549L508.14908,168.45549L505.75215,168.45549L503.35522,168.45549
				L500.95829,168.45549L498.56136,168.45549L498.56136,170.862L496.16443,170.862L496.16443,173.2685L496.16443,170.862L496.16443,173.2685
				L496.16443,170.862L493.7675,170.862L491.37057,170.862L491.37057,168.45549L488.97364,168.45549L488.97364,166.04898L488.97364,168.45549
				L488.97364,166.04898L486.57671,166.04898L486.57671,163.64247L484.17978,163.64247L481.78285,163.64247L479.38592,163.64247
				L479.38592,166.04898L476.98899,166.04898L476.98899,163.64247L474.59206,163.64247L474.59206,161.23597L472.19513,161.23597
				L469.79821,161.23597L467.40128,161.23597L469.79821,161.23597L469.79821,158.82946L467.40128,158.82946L469.79821,158.82946
				L469.79821,156.42295L469.79821,154.01645L467.40128,154.01645L467.40128,151.60994L465.00435,151.60994L462.60742,151.60994
				L460.21049,151.60994L457.81356,151.60994L457.81356,149.20343L455.41663,149.20343L455.41663,146.79693L453.0197,146.79693L
				455.41663,146.79693L455.41663,144.39042L453.0197,144.39042L453.0197,141.98391L453.0197,139.57741L453.0197,137.1709L453.0197,134.76439
				L450.62277,134.76439L448.22584,134.76439L445.82891,134.76439L445.82891,132.35788L443.43198,132.35788L445.82891,132.35788
				L445.82891,129.95138L443.43198,129.95138L443.43198,127.54487L443.43198,125.13836L441.03505,125.13836L441.03505,122.73186
				L441.03505,120.32535L441.03505,117.91884L441.03505,115.51234L443.43198,115.51234L443.43198,113.10583L445.82891,113.10583
				L443.43198,113.10583L443.43198,110.69932L441.03505,110.69932L438.63812,110.69932L441.03505,110.69932L441.03505,108.29281
				L438.63812,108.29281L438.63812,105.88631L438.63812,103.4798L441.03505,103.4798L438.63812,103.4798L441.03505,103.4798L438.63812,103.4798
				L438.63812,101.07329L438.63812,103.4798L438.63812,101.07329L436.24119,101.07329L436.24119,98.66679L436.24119,101.07329L433.84426,101.07329
				L433.84426,103.4798L433.84426,101.07329L433.84426,103.4798L436.24119,103.4798L433.84426,103.4798L436.24119,103.4798L433.84426,103.4798
				L433.84426,105.88631L431.44733,105.88631L431.44733,103.4798L431.44733,101.07329L429.0504,101.07329L426.65347,101.07329L426.65347,98.66679
				L426.65347,101.07329L426.65347,98.66679L426.65347,96.26028L429.0504,96.26028L429.0504,93.85377L426.65347,93.85377L429.0504,93.85377
				L429.0504,91.44727L426.65347,91.44727L429.0504,91.44727L426.65347,91.44727L429.0504,91.44727L429.0504,89.04076L426.65347,89.04076
				L426.65347,86.63425L429.0504,86.63425L429.0504,84.22774L426.65347,84.22774L429.0504,84.22774L431.44733,84.22774L431.44733,81.82124
				L431.44733,84.22774L429.0504,84.22774L429.0504,86.63425L429.0504,89.04076L431.44733,89.04076L431.44733,86.63425L429.0504,86.63425
				L429.0504,84.22774L431.44733,84.22774L431.44733,81.82124L433.84426,81.82124L436.24119,81.82124L438.63812,81.82124L441.03505,81.82124
				L441.03505,84.22774L443.43198,84.22774L445.82891,84.22774L448.22584,84.22774L448.22584,81.82124L445.82891,81.82124L448.22584,81.82124
				L450.62277,81.82124L450.62277,79.41473L450.62277,81.82124L450.62277,79.41473L453.0197,79.41473L455.41663,79.41473L455.41663,77.00822
				L457.81356,77.00822L457.81356,79.41473L457.81356,81.82124L457.81356,84.22774L460.21049,84.22774L460.21049,86.63425L460.21049,89.04076
				L462.60742,89.04076L465.00435,89.04076L467.40128,89.04076L469.79821,89.04076L472.19513,89.04076L472.19513,86.63425L474.59206,86.63425
				L476.98899,86.63425L476.98899,84.22774L479.38592,84.22774L479.38592,81.82124L479.38592,84.22774L479.38592,81.82124L479.38592,84.22774
				L479.38592,81.82124L481.78285,81.82124L484.17978,81.82124L484.17978,84.22774L486.57671,84.22774L484.17978,84.22774L486.57671,84.22774
				L488.97364,84.22774L488.97364,81.82124L491.37057,81.82124L491.37057,79.41473L491.37057,81.82124L493.7675,81.82124L491.37057,81.82124
				L491.37057,84.22774L491.37057,86.63425L493.7675,86.63425L493.7675,84.22774L496.16443,84.22774L498.56136,84.22774L496.16443,84.22774
				L496.16443,86.63425L498.56136,86.63425L500.95829,86.63425L500.95829,89.04076L498.56136,89.04076L498.56136,91.44727L496.16443,91.44727
				L496.16443,93.85377L498.56136,93.85377L500.95829,93.85377L500.95829,91.44727L503.35522,91.44727L505.75215,91.44727L503.35522,91.44727
				L503.35522,93.85377L505.75215,93.85377L508.14908,93.85377L510.54601,93.85377L510.54601,91.44727L512.94294,91.44727L512.94294,89.04076
				L512.94294,86.63425L515.33987,86.63425L517.7368,86.63425L520.13373,86.63425L522.53066,86.63425L522.53066,84.22774L522.53066,81.82124
				L522.53066,79.41473L522.53066,77.00822zM512.94294,156.42295L515.33987,156.42295L517.7368,156.42295L517.7368,158.82946L520.13373,158.82946
				L520.13373,161.23597L522.53066,161.23597L524.92759,161.23597L522.53066,161.23597L524.92759,161.23597L527.32452,161.23597
				L524.92759,161.23597L524.92759,163.64247L522.53066,163.64247L522.53066,166.04898L524.92759,166.04898L522.53066,166.04898
				L524.92759,166.04898L522.53066,166.04898L524.92759,166.04898L524.92759,168.45549L522.53066,168.45549L520.13373,168.45549
				L520.13373,166.04898L517.7368,166.04898L515.33987,166.04898L512.94294,166.04898L512.94294,163.64247L512.94294,161.23597L
				510.54601,161.23597L510.54601,158.82946L510.54601,156.42295L512.94294,156.42295zM529.72145,166.04898L532.11838,166.04898
				L532.11838,168.45549L529.72145,168.45549L529.72145,170.862L529.72145,173.2685L529.72145,170.862L527.32452,170.862L527.32452,168.45549
				L524.92759,168.45549L524.92759,166.04898L527.32452,166.04898L529.72145,166.04898zM592.04162,81.82124L592.04162,84.22774L
				592.04162,81.82124L592.04162,84.22774L594.43855,84.22774L592.04162,84.22774L594.43855,84.22774L594.43855,86.63425L592.04162,86.63425
				L594.43855,86.63425L592.04162,86.63425L592.04162,89.04076L592.04162,86.63425L589.64469,86.63425L592.04162,86.63425L592.04162,84.22774
				L592.04162,81.82124zM520.13373,170.862L520.13373,173.2685L520.13373,170.862L520.13373,173.2685L520.13373,170.862L520.13373,173.2685
				L522.53066,173.2685L522.53066,170.862L522.53066,173.2685L520.13373,173.2685L522.53066,173.2685L520.13373,173.2685L522.53066,173.2685
				L520.13373,173.2685L517.7368,173.2685L517.7368,170.862L520.13373,170.862zM582.4539,101.07329L582.4539,98.66679L584.85083,98.66679
				L584.85083,101.07329L582.4539,101.07329zM608.82012,98.66679L608.82012,101.07329L608.82012,98.66679L608.82012,101.07329L608.82012,98.66679
				L606.42319,98.66679L606.42319,101.07329L606.42319,98.66679L606.42319,101.07329L606.42319,98.66679L606.42319,101.07329L606.42319,98.66679
				L608.82012,98.66679zM601.62933,96.26028L604.02626,96.26028L601.62933,96.26028zM524.92759,163.64247L524.92759,166.04898L524.92759,163.64247
				z"/>
			<path name="罗源县" d="
				M460.21049,21.65856L460.21049,19.25206L460.21049,21.65856L462.60742,21.65856L462.60742,24.06507L465.00435,24.06507L467.40128,24.06507
				L467.40128,21.65856L469.79821,21.65856L472.19513,21.65856L474.59206,21.65856L476.98899,21.65856L479.38592,21.65856L479.38592,24.06507
				L481.78285,24.06507L479.38592,24.06507L481.78285,24.06507L484.17978,24.06507L484.17978,26.47158L486.57671,26.47158L486.57671,28.87808
				L486.57671,31.28459L488.97364,31.28459L488.97364,33.6911L491.37057,33.6911L491.37057,36.09761L491.37057,38.50411L488.97364,38.50411
				L491.37057,38.50411L491.37057,40.91062L491.37057,43.31713L493.7675,43.31713L496.16443,43.31713L498.56136,43.31713L498.56136,45.72363
				L500.95829,45.72363L500.95829,48.13014L503.35522,48.13014L505.75215,48.13014L508.14908,48.13014L510.54601,48.13014L508.14908,48.13014
				L510.54601,48.13014L510.54601,50.53665L512.94294,50.53665L510.54601,50.53665L512.94294,50.53665L512.94294,52.94315L515.33987,52.94315
				L512.94294,52.94315L515.33987,52.94315L517.7368,52.94315L520.13373,52.94315L522.53066,52.94315L524.92759,52.94315L524.92759,50.53665
				L527.32452,50.53665L529.72145,50.53665L529.72145,48.13014L529.72145,45.72363L532.11838,45.72363L532.11838,43.31713L532.11838,40.91062
				L534.5153,40.91062L536.91223,40.91062L536.91223,38.50411L536.91223,40.91062L539.30916,40.91062L541.70609,40.91062L541.70609,43.31713
				L544.10302,43.31713L544.10302,40.91062L546.49995,40.91062L548.89688,40.91062L548.89688,38.50411L546.49995,38.50411L548.89688,38.50411
				L551.29381,38.50411L553.69074,38.50411L556.08767,38.50411L556.08767,40.91062L558.4846,40.91062L560.88153,40.91062L560.88153,43.31713
				L560.88153,45.72363L563.27846,45.72363L560.88153,45.72363L560.88153,43.31713L558.4846,43.31713L556.08767,43.31713L556.08767,40.91062
				L556.08767,43.31713L556.08767,45.72363L553.69074,45.72363L553.69074,48.13014L553.69074,45.72363L553.69074,48.13014L556.08767,48.13014
				L556.08767,45.72363L556.08767,48.13014L558.4846,48.13014L558.4846,50.53665L556.08767,50.53665L558.4846,50.53665L558.4846,52.94315
				L560.88153,52.94315L558.4846,52.94315L558.4846,55.34966L558.4846,52.94315L558.4846,55.34966L556.08767,55.34966L558.4846,55.34966
				L560.88153,55.34966L560.88153,57.75617L563.27846,57.75617L563.27846,60.16267L560.88153,60.16267L558.4846,60.16267L560.88153,60.16267
				L558.4846,60.16267L558.4846,62.56918L558.4846,60.16267L556.08767,60.16267L558.4846,60.16267L556.08767,60.16267L556.08767,62.56918
				L556.08767,60.16267L556.08767,62.56918L558.4846,62.56918L560.88153,62.56918L563.27846,62.56918L565.67539,62.56918L565.67539,64.97569
				L563.27846,64.97569L565.67539,64.97569L563.27846,64.97569L565.67539,64.97569L565.67539,67.3822L563.27846,67.3822L565.67539,67.3822
				L565.67539,69.7887L565.67539,67.3822L568.07232,67.3822L568.07232,69.7887L565.67539,69.7887L568.07232,69.7887L568.07232,72.19521
				L565.67539,72.19521L568.07232,72.19521L568.07232,74.60172L570.46925,74.60172L568.07232,74.60172L568.07232,77.00822L568.07232,74.60172
				L570.46925,74.60172L570.46925,77.00822L568.07232,77.00822L568.07232,79.41473L568.07232,77.00822L568.07232,79.41473L565.67539,79.41473
				L563.27846,79.41473L563.27846,81.82124L563.27846,79.41473L563.27846,81.82124L560.88153,81.82124L563.27846,81.82124L560.88153,81.82124
				L560.88153,84.22774L560.88153,86.63425L560.88153,84.22774L560.88153,86.63425L558.4846,86.63425L556.08767,86.63425L553.69074,86.63425
				L556.08767,86.63425L553.69074,86.63425L553.69074,89.04076L553.69074,86.63425L553.69074,89.04076L551.29381,86.63425L548.89688,86.63425
				L546.49995,81.82124L544.10302,79.41473L539.30916,77.00822L541.70609,74.60172L539.30916,74.60172L539.30916,72.19521L536.91223,72.19521
				L534.5153,72.19521L524.92759,69.7887L527.32452,67.3822L532.11838,69.7887L529.72145,69.7887L529.72145,67.3822L527.32452,67.3822
				L524.92759,67.3822L522.53066,67.3822L520.13373,64.97569L520.13373,67.3822L517.7368,67.3822L517.7368,69.7887L517.7368,67.3822
				L517.7368,69.7887L515.33987,69.7887L515.33987,72.19521L515.33987,69.7887L515.33987,72.19521L515.33987,74.60172L515.33987,77.00822
				L517.7368,77.00822L517.7368,79.41473L520.13373,79.41473L520.13373,77.00822L520.13373,79.41473L520.13373,77.00822L522.53066,77.00822
				L522.53066,79.41473L522.53066,81.82124L522.53066,84.22774L522.53066,86.63425L520.13373,86.63425L517.7368,86.63425L515.33987,86.63425
				L512.94294,86.63425L512.94294,89.04076L512.94294,91.44727L510.54601,91.44727L510.54601,93.85377L508.14908,93.85377L505.75215,93.85377
				L503.35522,93.85377L503.35522,91.44727L505.75215,91.44727L503.35522,91.44727L500.95829,91.44727L500.95829,93.85377L498.56136,93.85377
				L496.16443,93.85377L496.16443,91.44727L498.56136,91.44727L498.56136,89.04076L500.95829,89.04076L500.95829,86.63425L498.56136,86.63425
				L496.16443,86.63425L496.16443,84.22774L498.56136,84.22774L496.16443,84.22774L493.7675,84.22774L493.7675,86.63425L491.37057,86.63425
				L491.37057,84.22774L491.37057,81.82124L493.7675,81.82124L491.37057,81.82124L491.37057,79.41473L491.37057,81.82124L488.97364,81.82124
				L488.97364,84.22774L486.57671,84.22774L484.17978,84.22774L486.57671,84.22774L484.17978,84.22774L484.17978,81.82124L481.78285,81.82124
				L479.38592,81.82124L479.38592,84.22774L479.38592,81.82124L479.38592,84.22774L479.38592,81.82124L479.38592,84.22774L476.98899,84.22774
				L476.98899,86.63425L474.59206,86.63425L472.19513,86.63425L472.19513,89.04076L469.79821,89.04076L467.40128,89.04076L465.00435,89.04076
				L462.60742,89.04076L460.21049,89.04076L460.21049,86.63425L460.21049,84.22774L457.81356,84.22774L457.81356,81.82124L457.81356,79.41473
				L457.81356,77.00822L455.41663,77.00822L455.41663,79.41473L453.0197,79.41473L450.62277,79.41473L450.62277,81.82124L450.62277,79.41473
				L450.62277,81.82124L448.22584,81.82124L445.82891,81.82124L448.22584,81.82124L448.22584,84.22774L445.82891,84.22774L443.43198,84.22774
				L441.03505,84.22774L441.03505,81.82124L438.63812,81.82124L436.24119,81.82124L433.84426,81.82124L431.44733,81.82124L431.44733,84.22774
				L429.0504,84.22774L429.0504,86.63425L431.44733,86.63425L431.44733,89.04076L429.0504,89.04076L429.0504,86.63425L429.0504,84.22774
				L431.44733,84.22774L431.44733,81.82124L431.44733,84.22774L429.0504,84.22774L426.65347,84.22774L429.0504,84.22774L429.0504,86.63425
				L426.65347,86.63425L426.65347,89.04076L426.65347,86.63425L426.65347,89.04076L424.25654,89.04076L421.85961,89.04076L421.85961,86.63425
				L421.85961,89.04076L419.46268,89.04076L419.46268,91.44727L417.06575,91.44727L417.06575,89.04076L417.06575,91.44727L414.66882,91.44727
				L414.66882,89.04076L412.27189,89.04076L412.27189,86.63425L409.87496,86.63425L409.87496,84.22774L407.47804,84.22774L405.08111,84.22774
				L405.08111,81.82124L405.08111,79.41473L402.68418,79.41473L400.28725,79.41473L400.28725,77.00822L397.89032,77.00822L395.49339,77.00822
				L395.49339,74.60172L393.09646,74.60172L395.49339,74.60172L395.49339,72.19521L397.89032,72.19521L400.28725,72.19521L400.28725,69.7887
				L397.89032,69.7887L397.89032,67.3822L395.49339,67.3822L395.49339,64.97569L393.09646,64.97569L390.69953,64.97569L390.69953,62.56918
				L388.3026,62.56918L385.90567,62.56918L385.90567,60.16267L385.90567,57.75617L385.90567,55.34966L385.90567,52.94315L388.3026,52.94315
				L388.3026,50.53665L388.3026,48.13014L390.69953,48.13014L390.69953,45.72363L390.69953,48.13014L393.09646,48.13014L395.49339,48.13014
				L395.49339,45.72363L397.89032,45.72363L397.89032,43.31713L400.28725,43.31713L400.28725,40.91062L402.68418,40.91062L402.68418,38.50411
				L405.08111,38.50411L405.08111,40.91062L407.47804,40.91062L407.47804,43.31713L407.47804,45.72363L409.87496,45.72363L409.87496,48.13014
				L407.47804,48.13014L409.87496,48.13014L409.87496,50.53665L409.87496,52.94315L412.27189,52.94315L414.66882,52.94315L414.66882,50.53665
				L414.66882,52.94315L414.66882,50.53665L414.66882,52.94315L414.66882,50.53665L417.06575,50.53665L417.06575,48.13014L417.06575,45.72363
				L419.46268,45.72363L421.85961,45.72363L421.85961,48.13014L421.85961,45.72363L421.85961,48.13014L424.25654,48.13014L424.25654,50.53665
				L426.65347,50.53665L426.65347,48.13014L426.65347,45.72363L426.65347,43.31713L426.65347,40.91062L426.65347,38.50411L429.0504,38.50411
				L429.0504,36.09761L426.65347,36.09761L429.0504,36.09761L429.0504,33.6911L431.44733,33.6911L433.84426,33.6911L433.84426,31.28459
				L433.84426,33.6911L433.84426,31.28459L433.84426,33.6911L436.24119,33.6911L436.24119,36.09761L438.63812,36.09761L441.03505,36.09761
				L441.03505,33.6911L443.43198,33.6911L443.43198,31.28459L443.43198,28.87808L445.82891,28.87808L445.82891,31.28459L448.22584,31.28459
				L450.62277,31.28459L450.62277,28.87808L450.62277,26.47158L453.0197,26.47158L453.0197,24.06507L455.41663,24.06507L457.81356,24.06507
				L457.81356,26.47158L460.21049,26.47158L460.21049,24.06507L457.81356,24.06507L457.81356,21.65856L460.21049,21.65856L457.81356,21.65856
				L460.21049,21.65856L460.21049,19.25206L460.21049,21.65856zM548.89688,74.60172L546.49995,74.60172L546.49995,77.00822L544.10302,77.00822
				L546.49995,79.41473L546.49995,81.82124L551.29381,84.22774L553.69074,84.22774L556.08767,84.22774L556.08767,81.82124L556.08767,79.41473
				L553.69074,79.41473L553.69074,77.00822L553.69074,79.41473L553.69074,77.00822L551.29381,77.00822L553.69074,77.00822L551.29381,77.00822
				L551.29381,74.60172L548.89688,74.60172zM556.08767,79.41473L553.69074,81.82124L548.89688,79.41473L551.29381,77.00822L556.08767,79.41473
				zM546.49995,79.41473L546.49995,77.00822L546.49995,79.41473z"/>
			<path name="马尾区" d="
				M510.54601,168.45549L510.54601,170.862L512.94294,170.862L515.33987,170.862L515.33987,173.2685L517.7368,173.2685L520.13373,173.2685
				L520.13373,175.67501L520.13373,178.08152L520.13373,180.48802L522.53066,180.48802L522.53066,185.30104L524.92759,185.30104
				L522.53066,187.70754L520.13373,190.11405L517.7368,190.11405L515.33987,190.11405L512.94294,187.70754L510.54601,187.70754L
				510.54601,190.11405L505.75215,190.11405L503.35522,190.11405L503.35522,187.70754L500.95829,187.70754L498.56136,187.70754L
				498.56136,185.30104L498.56136,187.70754L498.56136,185.30104L496.16443,185.30104L496.16443,182.89453L493.7675,182.89453L496.16443,182.89453
				L496.16443,180.48802L496.16443,178.08152L498.56136,178.08152L498.56136,175.67501L500.95829,175.67501L500.95829,173.2685L
				503.35522,173.2685L503.35522,170.862L505.75215,170.862L508.14908,168.45549L510.54601,168.45549zM469.79821,161.23597L472.19513,161.23597
				L474.59206,161.23597L474.59206,163.64247L476.98899,163.64247L476.98899,166.04898L479.38592,166.04898L479.38592,163.64247
				L481.78285,163.64247L484.17978,163.64247L486.57671,163.64247L486.57671,166.04898L488.97364,166.04898L488.97364,168.45549
				L488.97364,166.04898L488.97364,168.45549L491.37057,168.45549L491.37057,170.862L493.7675,170.862L496.16443,170.862L496.16443,173.2685
				L496.16443,175.67501L493.7675,175.67501L496.16443,175.67501L493.7675,175.67501L493.7675,178.08152L491.37057,178.08152L491.37057,180.48802
				L491.37057,182.89453L488.97364,182.89453L488.97364,185.30104L486.57671,185.30104L486.57671,187.70754L488.97364,187.70754
				L488.97364,190.11405L486.57671,190.11405L486.57671,192.52056L486.57671,194.92707L486.57671,197.33357L484.17978,197.33357
				L484.17978,199.74008L484.17978,202.14659L481.78285,202.14659L481.78285,204.55309L479.38592,204.55309L481.78285,204.55309
				L479.38592,204.55309L479.38592,206.9596L479.38592,209.36611L476.98899,209.36611L476.98899,211.77261L474.59206,211.77261L
				474.59206,214.17912L472.19513,214.17912L469.79821,214.17912L469.79821,211.77261L467.40128,211.77261L467.40128,209.36611L
				465.00435,209.36611L465.00435,206.9596L462.60742,206.9596L462.60742,204.55309L460.21049,204.55309L457.81356,204.55309L457.81356,202.14659
				L455.41663,202.14659L453.0197,202.14659L453.0197,199.74008L450.62277,199.74008L450.62277,197.33357L448.22584,197.33357L448.22584,194.92707
				L450.62277,194.92707L453.0197,194.92707L455.41663,192.52056L455.41663,194.92707L455.41663,192.52056L457.81356,192.52056L
				457.81356,194.92707L457.81356,192.52056L457.81356,190.11405L457.81356,187.70754L457.81356,185.30104L460.21049,185.30104L
				460.21049,182.89453L460.21049,180.48802L460.21049,178.08152L460.21049,180.48802L462.60742,180.48802L462.60742,178.08152L
				465.00435,178.08152L465.00435,175.67501L465.00435,173.2685L462.60742,173.2685L462.60742,170.862L465.00435,170.862L462.60742,170.862
				L462.60742,168.45549L465.00435,168.45549L465.00435,170.862L467.40128,170.862L467.40128,168.45549L465.00435,168.45549L465.00435,166.04898
				L467.40128,166.04898L467.40128,163.64247L467.40128,161.23597L465.00435,161.23597L467.40128,161.23597L469.79821,161.23597
				z"/>
			<path name="闽侯县" d="
				M369.12716,28.87808L369.12716,31.28459L371.52409,31.28459L371.52409,33.6911L373.92102,33.6911L371.52409,33.6911L369.12716,33.6911
				L369.12716,36.09761L369.12716,38.50411L371.52409,38.50411L371.52409,40.91062L371.52409,38.50411L373.92102,38.50411L373.92102,40.91062
				L376.31795,40.91062L378.71488,40.91062L378.71488,38.50411L376.31795,38.50411L378.71488,38.50411L378.71488,36.09761L378.71488,38.50411
				L378.71488,40.91062L378.71488,43.31713L381.11181,43.31713L381.11181,45.72363L383.50874,45.72363L383.50874,48.13014L385.90567,48.13014
				L388.3026,48.13014L388.3026,50.53665L388.3026,52.94315L385.90567,52.94315L385.90567,55.34966L385.90567,57.75617L385.90567,60.16267
				L385.90567,62.56918L388.3026,62.56918L390.69953,62.56918L390.69953,64.97569L393.09646,64.97569L395.49339,64.97569L395.49339,67.3822
				L397.89032,67.3822L397.89032,69.7887L400.28725,69.7887L400.28725,72.19521L397.89032,72.19521L395.49339,72.19521L395.49339,74.60172
				L393.09646,74.60172L395.49339,74.60172L395.49339,77.00822L397.89032,77.00822L400.28725,77.00822L400.28725,79.41473L402.68418,79.41473
				L405.08111,79.41473L405.08111,81.82124L405.08111,84.22774L407.47804,84.22774L409.87496,84.22774L409.87496,86.63425L412.27189,86.63425
				L412.27189,89.04076L414.66882,89.04076L414.66882,91.44727L412.27189,91.44727L412.27189,93.85377L412.27189,96.26028L412.27189,93.85377
				L414.66882,93.85377L414.66882,96.26028L414.66882,93.85377L417.06575,93.85377L417.06575,96.26028L419.46268,96.26028L419.46268,98.66679
				L417.06575,98.66679L417.06575,96.26028L414.66882,96.26028L412.27189,96.26028L412.27189,98.66679L412.27189,96.26028L409.87496,96.26028
				L409.87496,98.66679L407.47804,98.66679L407.47804,101.07329L405.08111,101.07329L402.68418,101.07329L402.68418,103.4798L402.68418,105.88631
				L402.68418,108.29281L405.08111,108.29281L402.68418,108.29281L402.68418,110.69932L402.68418,108.29281L405.08111,108.29281
				L405.08111,110.69932L402.68418,110.69932L400.28725,110.69932L400.28725,113.10583L400.28725,110.69932L400.28725,113.10583
				L400.28725,115.51234L400.28725,117.91884L397.89032,117.91884L397.89032,120.32535L397.89032,117.91884L397.89032,120.32535
				L400.28725,120.32535L400.28725,122.73186L402.68418,122.73186L402.68418,125.13836L405.08111,125.13836L405.08111,127.54487
				L402.68418,127.54487L400.28725,127.54487L400.28725,129.95138L402.68418,129.95138L402.68418,132.35788L405.08111,132.35788
				L405.08111,134.76439L405.08111,132.35788L407.47804,132.35788L407.47804,134.76439L405.08111,134.76439L407.47804,134.76439
				L409.87496,134.76439L409.87496,137.1709L409.87496,139.57741L409.87496,141.98391L407.47804,141.98391L407.47804,144.39042L
				407.47804,141.98391L407.47804,144.39042L405.08111,144.39042L407.47804,144.39042L407.47804,146.79693L409.87496,146.79693L
				409.87496,149.20343L407.47804,149.20343L409.87496,149.20343L409.87496,151.60994L407.47804,151.60994L409.87496,151.60994L
				409.87496,154.01645L412.27189,154.01645L412.27189,151.60994L414.66882,151.60994L414.66882,154.01645L414.66882,156.42295L
				417.06575,156.42295L417.06575,158.82946L417.06575,161.23597L417.06575,158.82946L417.06575,161.23597L414.66882,161.23597L
				414.66882,163.64247L414.66882,166.04898L414.66882,168.45549L414.66882,166.04898L414.66882,168.45549L417.06575,168.45549L
				414.66882,168.45549L417.06575,168.45549L419.46268,168.45549L419.46268,170.862L419.46268,173.2685L419.46268,175.67501L417.06575,175.67501
				L417.06575,178.08152L414.66882,178.08152L417.06575,178.08152L414.66882,178.08152L414.66882,175.67501L412.27189,175.67501
				L409.87496,175.67501L409.87496,178.08152L409.87496,180.48802L412.27189,180.48802L412.27189,182.89453L412.27189,185.30104
				L412.27189,187.70754L412.27189,190.11405L412.27189,192.52056L414.66882,194.92707L414.66882,197.33357L414.66882,199.74008
				L417.06575,199.74008L417.06575,202.14659L421.85961,206.9596L421.85961,209.36611L424.25654,209.36611L426.65347,209.36611L
				429.0504,211.77261L431.44733,211.77261L433.84426,211.77261L436.24119,211.77261L438.63812,211.77261L441.03505,211.77261L441.03505,214.17912
				L443.43198,211.77261L443.43198,214.17912L445.82891,214.17912L448.22584,214.17912L450.62277,214.17912L450.62277,216.58563
				L453.0197,216.58563L455.41663,216.58563L455.41663,218.99214L457.81356,218.99214L460.21049,218.99214L457.81356,218.99214L
				457.81356,221.39864L457.81356,223.80515L457.81356,226.21166L457.81356,228.61816L460.21049,228.61816L460.21049,231.02467L
				462.60742,231.02467L462.60742,233.43118L462.60742,235.83768L462.60742,238.24419L462.60742,240.6507L462.60742,238.24419L462.60742,240.6507
				L460.21049,240.6507L460.21049,243.05721L462.60742,243.05721L462.60742,245.46371L460.21049,245.46371L462.60742,245.46371L
				462.60742,247.87022L460.21049,247.87022L460.21049,250.27673L457.81356,250.27673L460.21049,250.27673L460.21049,252.68323L
				460.21049,250.27673L457.81356,250.27673L457.81356,252.68323L457.81356,250.27673L457.81356,252.68323L457.81356,250.27673L
				457.81356,252.68323L457.81356,255.08974L460.21049,255.08974L457.81356,255.08974L457.81356,257.49625L457.81356,259.90275L
				457.81356,262.30926L455.41663,262.30926L457.81356,262.30926L455.41663,262.30926L457.81356,262.30926L455.41663,262.30926L
				457.81356,262.30926L455.41663,262.30926L455.41663,264.71577L455.41663,267.12228L453.0197,267.12228L450.62277,267.12228L448.22584,267.12228
				L448.22584,264.71577L448.22584,262.30926L445.82891,262.30926L448.22584,262.30926L445.82891,262.30926L445.82891,264.71577
				L443.43198,264.71577L441.03505,264.71577L441.03505,262.30926L438.63812,262.30926L436.24119,262.30926L436.24119,259.90275
				L436.24119,257.49625L433.84426,257.49625L433.84426,255.08974L431.44733,255.08974L431.44733,257.49625L429.0504,257.49625L
				426.65347,257.49625L426.65347,255.08974L426.65347,252.68323L426.65347,250.27673L424.25654,250.27673L424.25654,252.68323L
				421.85961,252.68323L419.46268,252.68323L419.46268,255.08974L419.46268,252.68323L419.46268,255.08974L419.46268,252.68323L
				419.46268,255.08974L419.46268,252.68323L417.06575,252.68323L414.66882,252.68323L414.66882,255.08974L414.66882,257.49625L
				412.27189,257.49625L414.66882,257.49625L412.27189,257.49625L412.27189,255.08974L409.87496,255.08974L407.47804,255.08974L
				407.47804,252.68323L407.47804,255.08974L407.47804,252.68323L407.47804,250.27673L405.08111,250.27673L402.68418,250.27673L
				402.68418,247.87022L402.68418,245.46371L405.08111,245.46371L405.08111,243.05721L405.08111,240.6507L402.68418,240.6507L400.28725,240.6507
				L400.28725,238.24419L397.89032,238.24419L397.89032,235.83768L395.49339,235.83768L395.49339,238.24419L393.09646,238.24419
				L393.09646,235.83768L390.69953,235.83768L388.3026,235.83768L388.3026,238.24419L385.90567,238.24419L383.50874,238.24419L385.90567,238.24419
				L385.90567,235.83768L385.90567,233.43118L383.50874,233.43118L383.50874,235.83768L383.50874,233.43118L381.11181,233.43118
				L381.11181,231.02467L381.11181,228.61816L381.11181,231.02467L378.71488,231.02467L378.71488,228.61816L381.11181,228.61816
				L381.11181,226.21166L381.11181,223.80515L381.11181,221.39864L383.50874,221.39864L383.50874,218.99214L383.50874,216.58563
				L381.11181,216.58563L381.11181,218.99214L378.71488,218.99214L376.31795,218.99214L376.31795,216.58563L378.71488,216.58563
				L378.71488,214.17912L381.11181,214.17912L381.11181,211.77261L378.71488,211.77261L378.71488,209.36611L378.71488,206.9596L
				376.31795,206.9596L373.92102,206.9596L373.92102,204.55309L373.92102,206.9596L371.52409,206.9596L371.52409,204.55309L369.12716,204.55309
				L366.73023,204.55309L366.73023,202.14659L364.3333,202.14659L361.93637,202.14659L359.53944,202.14659L357.14251,202.14659L
				357.14251,199.74008L357.14251,202.14659L354.74558,202.14659L354.74558,199.74008L352.34865,199.74008L354.74558,199.74008L
				352.34865,199.74008L352.34865,197.33357L349.95172,197.33357L347.55479,197.33357L347.55479,199.74008L345.15787,199.74008L
				345.15787,197.33357L342.76094,197.33357L345.15787,197.33357L345.15787,194.92707L342.76094,194.92707L342.76094,197.33357L
				342.76094,194.92707L340.36401,194.92707L340.36401,197.33357L340.36401,194.92707L337.96708,194.92707L335.57015,194.92707L
				335.57015,192.52056L335.57015,190.11405L335.57015,187.70754L337.96708,187.70754L335.57015,187.70754L335.57015,185.30104L
				333.17322,185.30104L333.17322,187.70754L330.77629,187.70754L330.77629,185.30104L330.77629,187.70754L330.77629,185.30104L
				328.37936,185.30104L328.37936,187.70754L325.98243,187.70754L325.98243,190.11405L323.5855,190.11405L321.18857,190.11405L318.79164,190.11405
				L318.79164,187.70754L321.18857,187.70754L321.18857,185.30104L321.18857,182.89453L323.5855,182.89453L323.5855,180.48802L321.18857,180.48802
				L321.18857,178.08152L323.5855,178.08152L321.18857,178.08152L321.18857,175.67501L323.5855,175.67501L321.18857,175.67501L321.18857,173.2685
				L323.5855,173.2685L323.5855,170.862L323.5855,168.45549L325.98243,168.45549L325.98243,166.04898L325.98243,163.64247L323.5855,163.64247
				L325.98243,163.64247L325.98243,161.23597L325.98243,158.82946L328.37936,158.82946L328.37936,156.42295L328.37936,154.01645
				L330.77629,154.01645L333.17322,154.01645L333.17322,151.60994L333.17322,149.20343L333.17322,146.79693L333.17322,144.39042
				L333.17322,141.98391L333.17322,139.57741L333.17322,137.1709L335.57015,137.1709L335.57015,134.76439L337.96708,134.76439L337.96708,132.35788
				L340.36401,132.35788L340.36401,129.95138L340.36401,132.35788L340.36401,129.95138L342.76094,129.95138L340.36401,129.95138
				L342.76094,129.95138L342.76094,127.54487L340.36401,127.54487L337.96708,127.54487L335.57015,127.54487L335.57015,129.95138
				L335.57015,132.35788L333.17322,132.35788L330.77629,132.35788L330.77629,134.76439L328.37936,134.76439L328.37936,132.35788
				L325.98243,132.35788L325.98243,134.76439L325.98243,137.1709L323.5855,137.1709L323.5855,134.76439L321.18857,134.76439L318.79164,134.76439
				L318.79164,132.35788L318.79164,129.95138L318.79164,127.54487L318.79164,125.13836L318.79164,122.73186L321.18857,122.73186
				L321.18857,120.32535L321.18857,122.73186L323.5855,122.73186L323.5855,120.32535L321.18857,120.32535L323.5855,120.32535L323.5855,117.91884
				L325.98243,117.91884L325.98243,115.51234L325.98243,113.10583L328.37936,113.10583L325.98243,113.10583L325.98243,110.69932
				L325.98243,108.29281L325.98243,105.88631L328.37936,105.88631L328.37936,108.29281L328.37936,105.88631L325.98243,105.88631
				L325.98243,103.4798L328.37936,103.4798L325.98243,103.4798L328.37936,103.4798L325.98243,103.4798L328.37936,103.4798L328.37936,101.07329
				L328.37936,103.4798L328.37936,101.07329L330.77629,101.07329L333.17322,101.07329L330.77629,101.07329L330.77629,98.66679L333.17322,98.66679
				L333.17322,96.26028L335.57015,96.26028L335.57015,93.85377L333.17322,93.85377L333.17322,91.44727L335.57015,91.44727L337.96708,91.44727
				L337.96708,89.04076L337.96708,86.63425L340.36401,86.63425L340.36401,84.22774L342.76094,84.22774L345.15787,84.22774L345.15787,81.82124
				L345.15787,79.41473L347.55479,79.41473L349.95172,79.41473L349.95172,77.00822L352.34865,77.00822L349.95172,77.00822L352.34865,77.00822
				L352.34865,74.60172L354.74558,74.60172L354.74558,77.00822L354.74558,74.60172L354.74558,72.19521L354.74558,69.7887L352.34865,69.7887
				L352.34865,67.3822L354.74558,67.3822L354.74558,64.97569L357.14251,64.97569L357.14251,62.56918L354.74558,62.56918L357.14251,62.56918
				L357.14251,60.16267L357.14251,57.75617L354.74558,57.75617L357.14251,57.75617L354.74558,57.75617L354.74558,55.34966L352.34865,55.34966
				L352.34865,57.75617L349.95172,57.75617L349.95172,55.34966L349.95172,52.94315L352.34865,52.94315L352.34865,50.53665L352.34865,52.94315
				L352.34865,50.53665L354.74558,50.53665L354.74558,52.94315L354.74558,55.34966L354.74558,52.94315L357.14251,52.94315L357.14251,55.34966
				L357.14251,52.94315L357.14251,50.53665L357.14251,48.13014L354.74558,48.13014L357.14251,48.13014L354.74558,48.13014L354.74558,45.72363
				L352.34865,45.72363L352.34865,43.31713L349.95172,43.31713L352.34865,43.31713L352.34865,40.91062L352.34865,43.31713L354.74558,43.31713
				L354.74558,40.91062L354.74558,38.50411L357.14251,38.50411L354.74558,38.50411L354.74558,36.09761L357.14251,36.09761L357.14251,33.6911
				L359.53944,33.6911L359.53944,31.28459L361.93637,31.28459L364.3333,31.28459L361.93637,31.28459L364.3333,31.28459L366.73023,31.28459
				L366.73023,28.87808L369.12716,28.87808z"/>
			<path name="闽清县" d="
				M352.34865,45.72363L354.74558,45.72363L354.74558,48.13014L357.14251,48.13014L354.74558,48.13014L357.14251,48.13014L357.14251,50.53665
				L357.14251,52.94315L357.14251,55.34966L357.14251,52.94315L354.74558,52.94315L354.74558,55.34966L354.74558,52.94315L354.74558,50.53665
				L352.34865,50.53665L352.34865,52.94315L352.34865,50.53665L352.34865,52.94315L349.95172,52.94315L349.95172,55.34966L349.95172,57.75617
				L352.34865,57.75617L352.34865,55.34966L354.74558,55.34966L354.74558,57.75617L357.14251,57.75617L354.74558,57.75617L357.14251,57.75617
				L357.14251,60.16267L357.14251,62.56918L354.74558,62.56918L357.14251,62.56918L357.14251,64.97569L354.74558,64.97569L354.74558,67.3822
				L352.34865,67.3822L352.34865,69.7887L354.74558,69.7887L354.74558,72.19521L354.74558,74.60172L354.74558,77.00822L354.74558,74.60172
				L352.34865,74.60172L352.34865,77.00822L349.95172,77.00822L352.34865,77.00822L349.95172,77.00822L349.95172,79.41473L347.55479,79.41473
				L345.15787,79.41473L345.15787,81.82124L345.15787,84.22774L342.76094,84.22774L340.36401,84.22774L340.36401,86.63425L337.96708,86.63425
				L337.96708,89.04076L337.96708,91.44727L335.57015,91.44727L333.17322,91.44727L333.17322,93.85377L335.57015,93.85377L335.57015,96.26028
				L333.17322,96.26028L333.17322,98.66679L330.77629,98.66679L330.77629,101.07329L333.17322,101.07329L330.77629,101.07329L328.37936,101.07329
				L328.37936,103.4798L328.37936,101.07329L328.37936,103.4798L325.98243,103.4798L328.37936,103.4798L325.98243,103.4798L328.37936,103.4798
				L325.98243,103.4798L325.98243,105.88631L328.37936,105.88631L328.37936,108.29281L328.37936,105.88631L325.98243,105.88631L
				325.98243,108.29281L325.98243,110.69932L325.98243,113.10583L328.37936,113.10583L325.98243,113.10583L325.98243,115.51234L
				325.98243,117.91884L323.5855,117.91884L323.5855,120.32535L321.18857,120.32535L323.5855,120.32535L323.5855,122.73186L321.18857,122.73186
				L321.18857,120.32535L321.18857,122.73186L318.79164,122.73186L318.79164,125.13836L318.79164,127.54487L318.79164,129.95138
				L318.79164,132.35788L318.79164,134.76439L321.18857,134.76439L323.5855,134.76439L323.5855,137.1709L325.98243,137.1709L325.98243,134.76439
				L325.98243,132.35788L328.37936,132.35788L328.37936,134.76439L330.77629,134.76439L330.77629,132.35788L333.17322,132.35788
				L335.57015,132.35788L335.57015,129.95138L335.57015,127.54487L337.96708,127.54487L340.36401,127.54487L342.76094,127.54487
				L342.76094,129.95138L340.36401,129.95138L342.76094,129.95138L340.36401,129.95138L340.36401,132.35788L340.36401,129.95138
				L340.36401,132.35788L337.96708,132.35788L337.96708,134.76439L335.57015,134.76439L335.57015,137.1709L333.17322,137.1709L333.17322,139.57741
				L333.17322,141.98391L333.17322,144.39042L333.17322,146.79693L333.17322,149.20343L333.17322,151.60994L333.17322,154.01645
				L330.77629,154.01645L328.37936,154.01645L328.37936,156.42295L328.37936,158.82946L325.98243,158.82946L325.98243,161.23597
				L325.98243,163.64247L323.5855,163.64247L325.98243,163.64247L325.98243,166.04898L325.98243,168.45549L323.5855,168.45549L323.5855,170.862
				L323.5855,173.2685L321.18857,173.2685L321.18857,175.67501L323.5855,175.67501L321.18857,175.67501L321.18857,178.08152L323.5855,178.08152
				L321.18857,178.08152L321.18857,180.48802L323.5855,180.48802L323.5855,182.89453L321.18857,182.89453L321.18857,185.30104L321.18857,187.70754
				L318.79164,187.70754L316.39471,187.70754L316.39471,185.30104L313.99778,185.30104L311.60085,185.30104L309.20392,185.30104
				L309.20392,187.70754L311.60085,187.70754L311.60085,190.11405L309.20392,190.11405L309.20392,192.52056L309.20392,190.11405
				L309.20392,192.52056L309.20392,190.11405L309.20392,192.52056L306.80699,192.52056L309.20392,192.52056L309.20392,194.92707
				L309.20392,197.33357L306.80699,197.33357L304.41006,197.33357L304.41006,199.74008L304.41006,202.14659L304.41006,204.55309
				L302.01313,204.55309L299.6162,204.55309L297.21927,204.55309L297.21927,206.9596L294.82234,206.9596L294.82234,209.36611L292.42541,209.36611
				L292.42541,211.77261L292.42541,214.17912L292.42541,216.58563L290.02848,216.58563L287.63155,216.58563L290.02848,216.58563
				L290.02848,218.99214L287.63155,218.99214L287.63155,221.39864L287.63155,223.80515L287.63155,226.21166L287.63155,228.61816
				L285.23462,226.21166L285.23462,228.61816L285.23462,226.21166L285.23462,228.61816L282.8377,228.61816L282.8377,226.21166L280.44077,226.21166
				L280.44077,223.80515L282.8377,223.80515L280.44077,223.80515L280.44077,221.39864L282.8377,221.39864L280.44077,221.39864L280.44077,218.99214
				L280.44077,216.58563L280.44077,218.99214L278.04384,218.99214L278.04384,221.39864L278.04384,223.80515L275.64691,223.80515
				L273.24998,223.80515L270.85305,223.80515L270.85305,221.39864L268.45612,221.39864L268.45612,218.99214L268.45612,221.39864
				L266.05919,221.39864L266.05919,218.99214L266.05919,216.58563L266.05919,218.99214L266.05919,216.58563L263.66226,216.58563
				L263.66226,214.17912L261.26533,214.17912L261.26533,216.58563L258.8684,216.58563L256.47147,216.58563L256.47147,218.99214L
				256.47147,216.58563L256.47147,218.99214L254.07454,218.99214L251.67761,218.99214L249.28068,218.99214L249.28068,216.58563L
				251.67761,216.58563L251.67761,214.17912L251.67761,211.77261L251.67761,209.36611L249.28068,209.36611L249.28068,206.9596L246.88375,206.9596
				L246.88375,204.55309L244.48682,204.55309L244.48682,202.14659L244.48682,204.55309L244.48682,202.14659L242.08989,202.14659
				L242.08989,204.55309L242.08989,202.14659L242.08989,204.55309L242.08989,202.14659L242.08989,204.55309L239.69296,204.55309
				L239.69296,202.14659L239.69296,204.55309L237.29603,204.55309L234.8991,204.55309L234.8991,206.9596L234.8991,209.36611L234.8991,206.9596
				L232.50217,206.9596L232.50217,209.36611L232.50217,206.9596L230.10524,206.9596L227.70831,206.9596L227.70831,204.55309L227.70831,202.14659
				L225.31138,202.14659L225.31138,199.74008L225.31138,202.14659L225.31138,199.74008L222.91445,199.74008L222.91445,197.33357
				L225.31138,197.33357L225.31138,194.92707L225.31138,192.52056L225.31138,190.11405L222.91445,190.11405L222.91445,187.70754
				L225.31138,187.70754L227.70831,187.70754L230.10524,187.70754L232.50217,187.70754L234.8991,187.70754L237.29603,187.70754L
				237.29603,185.30104L239.69296,185.30104L239.69296,187.70754L239.69296,185.30104L242.08989,185.30104L242.08989,187.70754L
				242.08989,190.11405L244.48682,190.11405L244.48682,187.70754L246.88375,187.70754L244.48682,187.70754L244.48682,185.30104L
				246.88375,185.30104L246.88375,182.89453L244.48682,182.89453L244.48682,180.48802L244.48682,178.08152L242.08989,178.08152L
				244.48682,178.08152L242.08989,178.08152L242.08989,175.67501L242.08989,178.08152L242.08989,175.67501L242.08989,178.08152L
				242.08989,175.67501L242.08989,173.2685L242.08989,170.862L242.08989,168.45549L242.08989,166.04898L242.08989,168.45549L242.08989,166.04898
				L239.69296,166.04898L237.29603,166.04898L237.29603,163.64247L237.29603,161.23597L237.29603,158.82946L237.29603,156.42295
				L237.29603,154.01645L239.69296,154.01645L242.08989,154.01645L242.08989,151.60994L239.69296,151.60994L239.69296,149.20343
				L239.69296,146.79693L239.69296,144.39042L242.08989,144.39042L242.08989,141.98391L244.48682,141.98391L244.48682,144.39042
				L244.48682,141.98391L244.48682,144.39042L246.88375,144.39042L246.88375,141.98391L246.88375,144.39042L249.28068,144.39042
				L249.28068,141.98391L246.88375,141.98391L246.88375,139.57741L244.48682,139.57741L246.88375,139.57741L246.88375,137.1709L
				249.28068,137.1709L249.28068,134.76439L251.67761,134.76439L251.67761,137.1709L251.67761,134.76439L254.07454,134.76439L254.07454,137.1709
				L254.07454,134.76439L254.07454,137.1709L256.47147,137.1709L258.8684,137.1709L258.8684,139.57741L261.26533,139.57741L261.26533,137.1709
				L263.66226,137.1709L263.66226,134.76439L266.05919,134.76439L263.66226,134.76439L263.66226,132.35788L266.05919,132.35788L
				266.05919,134.76439L266.05919,132.35788L266.05919,129.95138L263.66226,129.95138L263.66226,127.54487L266.05919,127.54487L
				263.66226,127.54487L263.66226,125.13836L263.66226,122.73186L266.05919,122.73186L268.45612,122.73186L268.45612,120.32535L
				268.45612,117.91884L270.85305,117.91884L270.85305,120.32535L270.85305,117.91884L270.85305,120.32535L270.85305,117.91884L
				273.24998,117.91884L270.85305,117.91884L270.85305,115.51234L270.85305,113.10583L273.24998,113.10583L273.24998,110.69932L
				275.64691,110.69932L275.64691,108.29281L278.04384,108.29281L278.04384,105.88631L280.44077,105.88631L282.8377,105.88631L285.23462,105.88631
				L287.63155,105.88631L287.63155,108.29281L290.02848,108.29281L292.42541,108.29281L294.82234,108.29281L294.82234,105.88631
				L297.21927,105.88631L297.21927,103.4798L299.6162,101.07329L299.6162,98.66679L297.21927,98.66679L297.21927,96.26028L294.82234,96.26028
				L292.42541,96.26028L292.42541,93.85377L294.82234,93.85377L292.42541,93.85377L292.42541,91.44727L290.02848,91.44727L290.02848,89.04076
				L290.02848,91.44727L287.63155,91.44727L287.63155,89.04076L287.63155,91.44727L287.63155,89.04076L287.63155,91.44727L287.63155,89.04076
				L287.63155,86.63425L290.02848,86.63425L290.02848,84.22774L287.63155,84.22774L290.02848,84.22774L287.63155,84.22774L290.02848,84.22774
				L290.02848,81.82124L287.63155,81.82124L287.63155,79.41473L285.23462,79.41473L285.23462,77.00822L282.8377,77.00822L280.44077,77.00822
				L282.8377,77.00822L282.8377,74.60172L282.8377,72.19521L282.8377,69.7887L282.8377,67.3822L282.8377,64.97569L285.23462,64.97569
				L287.63155,64.97569L287.63155,62.56918L287.63155,60.16267L287.63155,57.75617L285.23462,57.75617L285.23462,55.34966L287.63155,55.34966
				L290.02848,55.34966L292.42541,55.34966L292.42541,57.75617L292.42541,55.34966L294.82234,55.34966L294.82234,57.75617L297.21927,57.75617
				L297.21927,60.16267L294.82234,60.16267L297.21927,60.16267L297.21927,62.56918L299.6162,62.56918L302.01313,62.56918L302.01313,64.97569
				L302.01313,67.3822L299.6162,67.3822L299.6162,69.7887L297.21927,69.7887L299.6162,69.7887L299.6162,72.19521L302.01313,72.19521
				L302.01313,74.60172L302.01313,77.00822L302.01313,79.41473L304.41006,79.41473L304.41006,81.82124L306.80699,81.82124L306.80699,79.41473
				L309.20392,79.41473L311.60085,79.41473L311.60085,77.00822L313.99778,77.00822L313.99778,74.60172L316.39471,74.60172L316.39471,72.19521
				L318.79164,72.19521L318.79164,69.7887L318.79164,67.3822L321.18857,67.3822L323.5855,67.3822L325.98243,67.3822L325.98243,64.97569
				L328.37936,64.97569L330.77629,64.97569L333.17322,64.97569L333.17322,67.3822L335.57015,67.3822L335.57015,69.7887L337.96708,69.7887
				L337.96708,67.3822L340.36401,67.3822L337.96708,67.3822L340.36401,67.3822L337.96708,67.3822L340.36401,67.3822L340.36401,64.97569
				L340.36401,62.56918L340.36401,60.16267L337.96708,60.16267L337.96708,62.56918L337.96708,60.16267L335.57015,60.16267L335.57015,57.75617
				L337.96708,57.75617L335.57015,57.75617L337.96708,57.75617L337.96708,55.34966L340.36401,55.34966L337.96708,55.34966L337.96708,52.94315
				L340.36401,52.94315L337.96708,52.94315L340.36401,52.94315L340.36401,50.53665L342.76094,50.53665L345.15787,50.53665L345.15787,48.13014
				L345.15787,50.53665L347.55479,50.53665L347.55479,48.13014L347.55479,50.53665L347.55479,48.13014L347.55479,50.53665L349.95172,50.53665
				L352.34865,50.53665L352.34865,48.13014L352.34865,45.72363z"/>
			<path name="台江区" d="
				M433.84426,185.30104L436.24119,185.30104L436.24119,187.70754L438.63812,187.70754L441.03505,187.70754L443.43198,187.70754
				L443.43198,190.11405L445.82891,190.11405L445.82891,192.52056L445.82891,190.11405L448.22584,190.11405L448.22584,192.52056
				L448.22584,194.92707L445.82891,194.92707L445.82891,192.52056L443.43198,192.52056L441.03505,192.52056L441.03505,190.11405
				L438.63812,190.11405L436.24119,190.11405L433.84426,190.11405L433.84426,192.52056L431.44733,192.52056L429.0504,192.52056L
				426.65347,192.52056L426.65347,190.11405L424.25654,190.11405L424.25654,187.70754L426.65347,187.70754L426.65347,185.30104L
				429.0504,185.30104L431.44733,185.30104L433.84426,185.30104z"/>
			<path name="永泰县" d="
				M313.99778,185.30104L316.39471,185.30104L316.39471,187.70754L318.79164,187.70754L318.79164,190.11405L321.18857,190.11405
				L323.5855,190.11405L325.98243,190.11405L325.98243,187.70754L328.37936,187.70754L328.37936,185.30104L330.77629,185.30104L
				330.77629,187.70754L330.77629,185.30104L330.77629,187.70754L333.17322,187.70754L333.17322,185.30104L335.57015,185.30104L
				335.57015,187.70754L337.96708,187.70754L335.57015,187.70754L335.57015,190.11405L335.57015,192.52056L335.57015,194.92707L
				337.96708,194.92707L340.36401,194.92707L340.36401,197.33357L340.36401,194.92707L342.76094,194.92707L342.76094,197.33357L
				342.76094,194.92707L345.15787,194.92707L345.15787,197.33357L342.76094,197.33357L345.15787,197.33357L345.15787,199.74008L
				347.55479,199.74008L347.55479,197.33357L349.95172,197.33357L352.34865,197.33357L352.34865,199.74008L354.74558,199.74008L
				352.34865,199.74008L354.74558,199.74008L354.74558,202.14659L357.14251,202.14659L357.14251,199.74008L357.14251,202.14659L
				359.53944,202.14659L361.93637,202.14659L364.3333,202.14659L366.73023,202.14659L366.73023,204.55309L369.12716,204.55309L371.52409,204.55309
				L371.52409,206.9596L373.92102,206.9596L373.92102,204.55309L373.92102,206.9596L376.31795,206.9596L378.71488,206.9596L378.71488,209.36611
				L378.71488,211.77261L381.11181,211.77261L381.11181,214.17912L378.71488,214.17912L378.71488,216.58563L376.31795,216.58563
				L376.31795,218.99214L378.71488,218.99214L381.11181,218.99214L381.11181,216.58563L383.50874,216.58563L383.50874,218.99214
				L383.50874,221.39864L381.11181,221.39864L381.11181,223.80515L381.11181,226.21166L381.11181,228.61816L378.71488,228.61816
				L378.71488,231.02467L381.11181,231.02467L381.11181,228.61816L381.11181,231.02467L381.11181,233.43118L383.50874,233.43118
				L383.50874,235.83768L383.50874,233.43118L385.90567,233.43118L385.90567,235.83768L385.90567,238.24419L383.50874,238.24419
				L385.90567,238.24419L388.3026,238.24419L388.3026,235.83768L390.69953,235.83768L393.09646,235.83768L393.09646,238.24419L395.49339,238.24419
				L395.49339,235.83768L397.89032,235.83768L397.89032,238.24419L400.28725,238.24419L400.28725,240.6507L402.68418,240.6507L405.08111,240.6507
				L405.08111,243.05721L405.08111,245.46371L402.68418,245.46371L402.68418,247.87022L402.68418,250.27673L405.08111,250.27673
				L407.47804,250.27673L407.47804,252.68323L407.47804,255.08974L405.08111,255.08974L405.08111,257.49625L402.68418,257.49625
				L402.68418,259.90275L400.28725,259.90275L397.89032,259.90275L395.49339,259.90275L395.49339,262.30926L395.49339,264.71577
				L395.49339,267.12228L393.09646,267.12228L393.09646,269.52878L390.69953,269.52878L390.69953,267.12228L388.3026,267.12228L
				388.3026,269.52878L385.90567,269.52878L385.90567,267.12228L383.50874,267.12228L383.50874,264.71577L381.11181,264.71577L381.11181,267.12228
				L378.71488,267.12228L376.31795,267.12228L376.31795,269.52878L373.92102,269.52878L373.92102,271.93529L373.92102,269.52878
				L373.92102,271.93529L371.52409,271.93529L373.92102,271.93529L371.52409,271.93529L371.52409,274.3418L371.52409,271.93529L
				369.12716,271.93529L369.12716,274.3418L369.12716,276.7483L369.12716,279.15481L366.73023,279.15481L364.3333,279.15481L361.93637,279.15481
				L361.93637,281.56132L359.53944,281.56132L357.14251,281.56132L354.74558,281.56132L354.74558,283.96782L352.34865,283.96782
				L349.95172,283.96782L347.55479,283.96782L345.15787,283.96782L342.76094,283.96782L342.76094,286.37433L340.36401,286.37433
				L340.36401,288.78084L337.96708,288.78084L337.96708,286.37433L337.96708,283.96782L337.96708,281.56132L337.96708,279.15481
				L337.96708,276.7483L340.36401,276.7483L337.96708,276.7483L340.36401,276.7483L337.96708,276.7483L335.57015,276.7483L335.57015,279.15481
				L333.17322,279.15481L333.17322,281.56132L330.77629,281.56132L330.77629,283.96782L328.37936,283.96782L330.77629,283.96782
				L330.77629,286.37433L328.37936,286.37433L330.77629,286.37433L328.37936,286.37433L325.98243,286.37433L323.5855,286.37433L
				323.5855,288.78084L321.18857,288.78084L321.18857,291.18734L318.79164,291.18734L318.79164,293.59385L316.39471,293.59385L316.39471,291.18734
				L318.79164,291.18734L316.39471,291.18734L313.99778,291.18734L311.60085,291.18734L309.20392,291.18734L306.80699,291.18734
				L306.80699,288.78084L304.41006,288.78084L304.41006,286.37433L302.01313,286.37433L299.6162,286.37433L299.6162,288.78084L297.21927,288.78084
				L299.6162,288.78084L299.6162,291.18734L297.21927,291.18734L297.21927,293.59385L294.82234,293.59385L294.82234,296.00036L292.42541,296.00036
				L290.02848,296.00036L290.02848,298.40687L290.02848,296.00036L290.02848,298.40687L290.02848,296.00036L287.63155,296.00036
				L285.23462,296.00036L285.23462,293.59385L285.23462,296.00036L285.23462,298.40687L282.8377,298.40687L282.8377,300.81337L280.44077,300.81337
				L280.44077,298.40687L280.44077,300.81337L280.44077,303.21988L278.04384,303.21988L278.04384,300.81337L278.04384,303.21988
				L278.04384,300.81337L278.04384,298.40687L278.04384,296.00036L278.04384,293.59385L278.04384,296.00036L275.64691,296.00036
				L273.24998,296.00036L273.24998,298.40687L270.85305,298.40687L270.85305,296.00036L268.45612,296.00036L268.45612,293.59385
				L266.05919,293.59385L263.66226,293.59385L266.05919,293.59385L266.05919,291.18734L263.66226,291.18734L261.26533,288.78084
				L261.26533,291.18734L261.26533,288.78084L258.8684,288.78084L256.47147,288.78084L254.07454,288.78084L254.07454,291.18734L
				254.07454,293.59385L251.67761,293.59385L251.67761,291.18734L249.28068,291.18734L249.28068,288.78084L246.88375,288.78084L
				246.88375,291.18734L246.88375,293.59385L249.28068,293.59385L246.88375,293.59385L246.88375,296.00036L246.88375,298.40687L
				246.88375,296.00036L244.48682,296.00036L244.48682,298.40687L244.48682,296.00036L242.08989,296.00036L242.08989,298.40687L
				239.69296,298.40687L239.69296,296.00036L237.29603,296.00036L237.29603,298.40687L239.69296,298.40687L237.29603,298.40687L
				237.29603,300.81337L237.29603,298.40687L234.8991,298.40687L232.50217,298.40687L232.50217,300.81337L232.50217,298.40687L230.10524,298.40687
				L230.10524,300.81337L230.10524,303.21988L227.70831,303.21988L227.70831,305.62639L227.70831,303.21988L225.31138,303.21988
				L225.31138,305.62639L222.91445,305.62639L222.91445,303.21988L222.91445,300.81337L220.51753,300.81337L220.51753,298.40687
				L218.1206,298.40687L218.1206,296.00036L215.72367,296.00036L215.72367,293.59385L213.32674,293.59385L213.32674,291.18734L210.92981,291.18734
				L210.92981,288.78084L208.53288,288.78084L208.53288,286.37433L206.13595,286.37433L203.73902,286.37433L201.34209,286.37433
				L201.34209,283.96782L203.73902,283.96782L201.34209,283.96782L198.94516,283.96782L198.94516,281.56132L198.94516,279.15481
				L198.94516,276.7483L198.94516,274.3418L198.94516,276.7483L198.94516,274.3418L196.54823,274.3418L196.54823,271.93529L196.54823,269.52878
				L198.94516,269.52878L196.54823,269.52878L196.54823,267.12228L196.54823,264.71577L194.1513,264.71577L194.1513,262.30926L191.75437,262.30926
				L191.75437,259.90275L189.35744,259.90275L186.96051,259.90275L186.96051,257.49625L189.35744,257.49625L189.35744,255.08974
				L191.75437,255.08974L189.35744,255.08974L191.75437,255.08974L191.75437,252.68323L191.75437,250.27673L191.75437,247.87022
				L191.75437,250.27673L194.1513,250.27673L194.1513,247.87022L196.54823,247.87022L198.94516,247.87022L198.94516,245.46371L196.54823,245.46371
				L198.94516,245.46371L196.54823,245.46371L196.54823,243.05721L196.54823,240.6507L194.1513,240.6507L194.1513,238.24419L194.1513,235.83768
				L196.54823,235.83768L196.54823,233.43118L198.94516,233.43118L198.94516,231.02467L201.34209,231.02467L201.34209,228.61816
				L203.73902,228.61816L203.73902,231.02467L206.13595,231.02467L206.13595,233.43118L208.53288,233.43118L208.53288,235.83768
				L210.92981,235.83768L208.53288,235.83768L208.53288,238.24419L208.53288,240.6507L208.53288,243.05721L208.53288,245.46371L
				208.53288,243.05721L210.92981,243.05721L213.32674,243.05721L210.92981,243.05721L213.32674,243.05721L213.32674,240.6507L213.32674,238.24419
				L210.92981,238.24419L210.92981,235.83768L213.32674,235.83768L210.92981,235.83768L210.92981,233.43118L213.32674,233.43118
				L215.72367,233.43118L213.32674,233.43118L215.72367,233.43118L215.72367,235.83768L215.72367,233.43118L218.1206,233.43118L
				218.1206,235.83768L218.1206,233.43118L218.1206,235.83768L220.51753,235.83768L222.91445,235.83768L222.91445,238.24419L222.91445,235.83768
				L222.91445,238.24419L222.91445,235.83768L222.91445,233.43118L220.51753,233.43118L222.91445,233.43118L222.91445,231.02467
				L220.51753,231.02467L222.91445,231.02467L220.51753,231.02467L220.51753,228.61816L222.91445,228.61816L222.91445,226.21166
				L225.31138,226.21166L225.31138,223.80515L222.91445,223.80515L222.91445,226.21166L222.91445,223.80515L222.91445,221.39864
				L222.91445,218.99214L225.31138,218.99214L222.91445,218.99214L225.31138,218.99214L225.31138,216.58563L222.91445,216.58563
				L222.91445,214.17912L225.31138,214.17912L222.91445,214.17912L225.31138,214.17912L222.91445,214.17912L222.91445,211.77261
				L222.91445,209.36611L225.31138,209.36611L225.31138,206.9596L225.31138,204.55309L222.91445,204.55309L222.91445,202.14659L
				222.91445,199.74008L225.31138,199.74008L225.31138,202.14659L225.31138,199.74008L225.31138,202.14659L227.70831,202.14659L
				227.70831,204.55309L227.70831,206.9596L230.10524,206.9596L232.50217,206.9596L232.50217,209.36611L232.50217,206.9596L234.8991,206.9596
				L234.8991,209.36611L234.8991,206.9596L234.8991,204.55309L237.29603,204.55309L239.69296,204.55309L239.69296,202.14659L239.69296,204.55309
				L242.08989,204.55309L242.08989,202.14659L242.08989,204.55309L242.08989,202.14659L242.08989,204.55309L242.08989,202.14659
				L244.48682,202.14659L244.48682,204.55309L244.48682,202.14659L244.48682,204.55309L246.88375,204.55309L246.88375,206.9596L
				249.28068,206.9596L249.28068,209.36611L251.67761,209.36611L251.67761,211.77261L251.67761,214.17912L251.67761,216.58563L249.28068,216.58563
				L249.28068,218.99214L251.67761,218.99214L254.07454,218.99214L256.47147,218.99214L256.47147,216.58563L256.47147,218.99214
				L256.47147,216.58563L258.8684,216.58563L261.26533,216.58563L261.26533,214.17912L263.66226,214.17912L263.66226,216.58563L
				266.05919,216.58563L266.05919,218.99214L266.05919,216.58563L266.05919,218.99214L266.05919,221.39864L268.45612,221.39864L
				268.45612,218.99214L268.45612,221.39864L270.85305,221.39864L270.85305,223.80515L273.24998,223.80515L275.64691,223.80515L
				278.04384,223.80515L278.04384,221.39864L278.04384,218.99214L280.44077,218.99214L280.44077,216.58563L280.44077,218.99214L
				280.44077,221.39864L282.8377,221.39864L280.44077,221.39864L280.44077,223.80515L282.8377,223.80515L280.44077,223.80515L280.44077,226.21166
				L282.8377,226.21166L282.8377,228.61816L285.23462,228.61816L285.23462,226.21166L285.23462,228.61816L285.23462,226.21166L287.63155,228.61816
				L287.63155,226.21166L287.63155,223.80515L287.63155,221.39864L287.63155,218.99214L290.02848,218.99214L290.02848,216.58563
				L287.63155,216.58563L290.02848,216.58563L292.42541,216.58563L292.42541,214.17912L292.42541,211.77261L292.42541,209.36611
				L294.82234,209.36611L294.82234,206.9596L297.21927,206.9596L297.21927,204.55309L299.6162,204.55309L302.01313,204.55309L304.41006,204.55309
				L304.41006,202.14659L304.41006,199.74008L304.41006,197.33357L306.80699,197.33357L309.20392,197.33357L309.20392,194.92707
				L309.20392,192.52056L306.80699,192.52056L309.20392,192.52056L309.20392,190.11405L309.20392,192.52056L309.20392,190.11405
				L309.20392,192.52056L309.20392,190.11405L311.60085,190.11405L311.60085,187.70754L309.20392,187.70754L309.20392,185.30104
				L311.60085,185.30104L313.99778,185.30104z"/>
			<path name="长乐市" d="
				M496.16443,185.30104L498.56136,187.70754L498.56136,185.30104L498.56136,187.70754L500.95829,187.70754L503.35522,187.70754
				L503.35522,190.11405L505.75215,190.11405L508.14908,190.11405L510.54601,190.11405L510.54601,192.52056L508.14908,192.52056
				L505.75215,192.52056L505.75215,190.11405L503.35522,190.11405L500.95829,190.11405L500.95829,192.52056L503.35522,192.52056
				L500.95829,192.52056L500.95829,190.11405L500.95829,187.70754L498.56136,187.70754L496.16443,185.30104L493.7675,185.30104L
				496.16443,185.30104zM496.16443,185.30104L496.16443,187.70754L498.56136,187.70754L498.56136,190.11405L498.56136,192.52056
				L500.95829,192.52056L503.35522,192.52056L505.75215,192.52056L508.14908,192.52056L510.54601,192.52056L512.94294,192.52056
				L515.33987,192.52056L517.7368,192.52056L517.7368,194.92707L517.7368,192.52056L517.7368,194.92707L520.13373,194.92707L522.53066,194.92707
				L524.92759,194.92707L524.92759,197.33357L527.32452,197.33357L529.72145,194.92707L532.11838,194.92707L532.11838,197.33357
				L529.72145,197.33357L527.32452,197.33357L524.92759,197.33357L527.32452,197.33357L529.72145,197.33357L529.72145,199.74008
				L527.32452,199.74008L527.32452,202.14659L529.72145,202.14659L532.11838,202.14659L532.11838,199.74008L534.5153,199.74008L
				536.91223,199.74008L536.91223,202.14659L539.30916,202.14659L539.30916,199.74008L541.70609,199.74008L544.10302,199.74008L
				546.49995,199.74008L546.49995,202.14659L544.10302,202.14659L544.10302,204.55309L541.70609,204.55309L541.70609,206.9596L541.70609,209.36611
				L541.70609,211.77261L539.30916,211.77261L539.30916,214.17912L539.30916,216.58563L539.30916,218.99214L536.91223,218.99214
				L536.91223,221.39864L534.5153,221.39864L534.5153,223.80515L534.5153,226.21166L534.5153,228.61816L534.5153,231.02467L534.5153,233.43118
				L532.11838,233.43118L532.11838,235.83768L529.72145,235.83768L527.32452,235.83768L524.92759,235.83768L522.53066,235.83768
				L520.13373,235.83768L520.13373,238.24419L517.7368,238.24419L517.7368,240.6507L515.33987,240.6507L515.33987,243.05721L515.33987,245.46371
				L515.33987,247.87022L515.33987,250.27673L515.33987,252.68323L515.33987,255.08974L515.33987,257.49625L515.33987,259.90275
				L515.33987,262.30926L515.33987,264.71577L515.33987,267.12228L515.33987,269.52878L515.33987,271.93529L517.7368,271.93529L
				517.7368,274.3418L517.7368,276.7483L517.7368,279.15481L515.33987,279.15481L515.33987,281.56132L515.33987,283.96782L512.94294,283.96782
				L512.94294,286.37433L510.54601,286.37433L510.54601,288.78084L510.54601,291.18734L512.94294,291.18734L512.94294,293.59385
				L512.94294,291.18734L510.54601,291.18734L510.54601,293.59385L510.54601,296.00036L510.54601,298.40687L508.14908,298.40687
				L510.54601,298.40687L508.14908,298.40687L505.75215,298.40687L503.35522,298.40687L503.35522,296.00036L505.75215,296.00036
				L505.75215,293.59385L503.35522,293.59385L503.35522,291.18734L500.95829,291.18734L500.95829,288.78084L503.35522,288.78084
				L503.35522,286.37433L503.35522,283.96782L505.75215,283.96782L505.75215,281.56132L503.35522,281.56132L503.35522,279.15481
				L500.95829,279.15481L498.56136,279.15481L496.16443,279.15481L496.16443,276.7483L493.7675,276.7483L491.37057,276.7483L491.37057,274.3418
				L491.37057,271.93529L491.37057,274.3418L493.7675,274.3418L493.7675,271.93529L496.16443,271.93529L496.16443,269.52878L493.7675,269.52878
				L493.7675,267.12228L491.37057,267.12228L488.97364,267.12228L486.57671,267.12228L484.17978,267.12228L484.17978,269.52878L
				484.17978,267.12228L481.78285,267.12228L479.38592,267.12228L479.38592,269.52878L476.98899,269.52878L476.98899,267.12228L
				476.98899,269.52878L474.59206,269.52878L474.59206,267.12228L472.19513,267.12228L472.19513,264.71577L469.79821,264.71577L
				472.19513,264.71577L469.79821,264.71577L472.19513,264.71577L472.19513,262.30926L472.19513,259.90275L469.79821,259.90275L
				467.40128,259.90275L467.40128,257.49625L465.00435,257.49625L465.00435,259.90275L465.00435,257.49625L462.60742,257.49625L
				465.00435,257.49625L462.60742,257.49625L462.60742,255.08974L465.00435,255.08974L462.60742,255.08974L460.21049,255.08974L
				460.21049,257.49625L457.81356,257.49625L457.81356,255.08974L460.21049,255.08974L457.81356,255.08974L457.81356,252.68323L
				457.81356,250.27673L457.81356,252.68323L457.81356,250.27673L457.81356,252.68323L457.81356,250.27673L460.21049,250.27673L
				460.21049,252.68323L460.21049,250.27673L457.81356,250.27673L460.21049,250.27673L460.21049,247.87022L462.60742,247.87022L
				462.60742,245.46371L460.21049,245.46371L462.60742,245.46371L462.60742,243.05721L460.21049,243.05721L460.21049,240.6507L462.60742,240.6507
				L462.60742,238.24419L462.60742,240.6507L462.60742,238.24419L462.60742,235.83768L462.60742,233.43118L462.60742,231.02467L
				460.21049,231.02467L460.21049,228.61816L457.81356,228.61816L457.81356,226.21166L457.81356,223.80515L457.81356,221.39864L
				457.81356,218.99214L460.21049,218.99214L460.21049,216.58563L462.60742,216.58563L462.60742,214.17912L465.00435,214.17912L
				465.00435,211.77261L467.40128,211.77261L469.79821,211.77261L469.79821,214.17912L472.19513,214.17912L474.59206,214.17912L
				474.59206,211.77261L476.98899,211.77261L476.98899,209.36611L479.38592,209.36611L479.38592,206.9596L479.38592,204.55309L481.78285,204.55309
				L479.38592,204.55309L481.78285,204.55309L481.78285,202.14659L484.17978,202.14659L484.17978,199.74008L484.17978,197.33357
				L486.57671,197.33357L486.57671,194.92707L486.57671,192.52056L486.57671,190.11405L488.97364,190.11405L488.97364,187.70754
				L491.37057,187.70754L491.37057,185.30104L493.7675,185.30104L496.16443,185.30104zM529.72145,274.3418L527.32452,274.3418L527.32452,276.7483
				L529.72145,276.7483L529.72145,274.3418L529.72145,276.7483L532.11838,276.7483L529.72145,276.7483L529.72145,279.15481L529.72145,276.7483
				L527.32452,276.7483L527.32452,274.3418L529.72145,274.3418zM534.5153,276.7483L532.11838,276.7483L534.5153,276.7483zM522.53066,279.15481
				L524.92759,279.15481L527.32452,279.15481L527.32452,281.56132L527.32452,279.15481L524.92759,279.15481L522.53066,279.15481
				zM515.33987,293.59385L517.7368,293.59385L517.7368,296.00036L515.33987,296.00036L515.33987,293.59385zM524.92759,298.40687
				L527.32452,298.40687L527.32452,296.00036L529.72145,296.00036L527.32452,296.00036L527.32452,298.40687L524.92759,298.40687
				zM524.92759,300.81337L522.53066,300.81337L522.53066,303.21988L520.13373,303.21988L520.13373,300.81337L522.53066,300.81337
				L524.92759,300.81337z"/>
		</g>
	</g>
</svg>
